<?xml version="1.0" encoding="UTF-8" standalone="no"?>
<svg
   xmlns:dc="http://purl.org/dc/elements/1.1/"
   xmlns:cc="http://creativecommons.org/ns#"
   xmlns:rdf="http://www.w3.org/1999/02/22-rdf-syntax-ns#"
   xmlns:svg="http://www.w3.org/2000/svg"
   xmlns="http://www.w3.org/2000/svg"
   xmlns:sodipodi="http://sodipodi.sourceforge.net/DTD/sodipodi-0.dtd"
   xmlns:inkscape="http://www.inkscape.org/namespaces/inkscape"
   viewBox="0 0 512 512"
   id="svg2"
   version="1.1"
   inkscape:version="0.48.4 r9939"
   width="100%"
   height="100%"
   sodipodi:docname="cloak-dagger.svg"
   inkscape:export-filename="/home/jami/Projects/java/valley-of-bones/art/exported/sabotage.png"
   inkscape:export-xdpi="5.6199999"
   inkscape:export-ydpi="5.6199999">
  <metadata
     id="metadata32">
    <rdf:RDF>
      <cc:Work
         rdf:about="">
        <dc:format>image/svg+xml</dc:format>
        <dc:type
           rdf:resource="http://purl.org/dc/dcmitype/StillImage" />
        <dc:title></dc:title>
      </cc:Work>
    </rdf:RDF>
  </metadata>
  <defs
     id="defs30" />
  <sodipodi:namedview
     pagecolor="#ffffff"
     bordercolor="#666666"
     borderopacity="1"
     objecttolerance="10"
     gridtolerance="10"
     guidetolerance="10"
     inkscape:pageopacity="0"
     inkscape:pageshadow="2"
     inkscape:window-width="640"
     inkscape:window-height="480"
     id="namedview28"
     showgrid="false"
     inkscape:zoom="0.4609375"
     inkscape:cx="256"
     inkscape:cy="256"
     inkscape:window-x="2336"
     inkscape:window-y="333"
     inkscape:window-maximized="0"
     inkscape:current-layer="svg2" />
  <path
     d="m0,0h512v512h-512z"
     id="path4" />
  <g
     transform="matrix(18.68858,0,0,18.68858,1981.7637,-10483.47706)"
     id="g6">
    <path
       d="m-100.1617,585.3483c0-22.1987 15.4375-22.1418 15.4375,0-5.4422,3.227-10.2382,3.083-15.4375,0z"
       fill="#fff"
       fill-rule="evenodd"
       stroke="#000"
       id="path8" />
    <path
       d="m655.5625,577.7684c0,4.1249-2.1406,7.4688-4.7812,7.4688s-4.7812-3.3439-4.7812-7.4688 2.1406-7.4688 4.7812-7.4688 4.7812,3.3439 4.7812,7.4688z"
       transform="matrix(1.11297,0,0,1.14306,-816.74345,-81.23815)"
       id="path10" />
    <path
       d="m-92.443,561.4431c-3.5217,1.6546-6.4493,6.4736-7.1944,10.0687 2.1517,0 3.7252.6853 4.8611,1.8905l2.3333-2.549 2.3139,2.6029c1.1198-1.1925 2.6892-1.9444 4.8805-1.9444-.8838-3.5501-3.5993-8.3189-7.1944-10.0687z"
       fill="#fff"
       stroke="#000"
       id="path12" />
    <path
       d="m-94.1087,565.8945c-1.3156.1487-2.3501,2.7036-3.0285,4.3914 1.9006.917 3.1105,1.8387 3.8866,3.2304h1.6657c.8082-1.3838 2.0175-2.2444 3.8361-3.2304-1.0345-2.2633-2.8171-6.3855-4.6942-3.2641-.5997-.8747-1.1509-1.1855-1.6657-1.1273z"
       id="path14" />
    <g
       transform="matrix(.49914,0,0,.49914,-331.89054,328.45734)"
       id="g16">
      <path
         d="m477.727,499.3888c0,5.613.0707,10.678 2.093,16.0171 2.1073-5.1511 1.8837-10.3461 1.8837-15.8802"
         fill="#fff"
         fill-rule="evenodd"
         stroke="#fff"
         id="path18" />
      <path
         d="m473.9579,498.7143h11.5219v1.9847c-3.7907-1.0035-7.7447-1.2173-11.5219,0v-1.9847z"
         fill="#fff"
         id="path20" />
      <path
         d="m478.3073,491.4642h2.8229c-.7497,2.5093-.8342,5.0186 0,7.5279h-2.8229c.9955-2.5093.7821-5.0186 0-7.5279z"
         fill="#fff"
         id="path22" />
    </g>
    <path
       d="m648.5716,566.8339c0,.4455-.3611.8065-.8065.8065s-.8065-.3611-.8065-.8065 .3611-.8065.8065-.8065 .8065.3611.8065.8065z"
       fill="#fff"
       transform="matrix(1.06849,0,0,.58562,-786.42054,237.21511)"
       id="path24" />
    <path
       d="m648.5716,566.8339c0,.4455-.3611.8065-.8065.8065s-.8065-.3611-.8065-.8065 .3611-.8065.8065-.8065 .8065.3611.8065.8065z"
       fill="#fff"
       transform="matrix(1.06849,0,0,.58562,-782.73033,237.21511)"
       id="path26" />
  </g>
</svg>
