<?xml version="1.0" encoding="UTF-8" standalone="no"?>
<svg
   xmlns:dc="http://purl.org/dc/elements/1.1/"
   xmlns:cc="http://creativecommons.org/ns#"
   xmlns:rdf="http://www.w3.org/1999/02/22-rdf-syntax-ns#"
   xmlns:svg="http://www.w3.org/2000/svg"
   xmlns="http://www.w3.org/2000/svg"
   xmlns:sodipodi="http://sodipodi.sourceforge.net/DTD/sodipodi-0.dtd"
   xmlns:inkscape="http://www.inkscape.org/namespaces/inkscape"
   viewBox="0 0 512 512"
   id="svg2"
   version="1.1"
   inkscape:version="0.48.4 r9939"
   width="100%"
   height="100%"
   sodipodi:docname="paranoia.svg"
   inkscape:export-filename="/home/jami/Projects/java/valley-of-bones/art/exported/detector.png"
   inkscape:export-xdpi="5.6199999"
   inkscape:export-ydpi="5.6199999">
  <metadata
     id="metadata36">
    <rdf:RDF>
      <cc:Work
         rdf:about="">
        <dc:format>image/svg+xml</dc:format>
        <dc:type
           rdf:resource="http://purl.org/dc/dcmitype/StillImage" />
        <dc:title></dc:title>
      </cc:Work>
    </rdf:RDF>
  </metadata>
  <defs
     id="defs34" />
  <sodipodi:namedview
     pagecolor="#ffffff"
     bordercolor="#666666"
     borderopacity="1"
     objecttolerance="10"
     gridtolerance="10"
     guidetolerance="10"
     inkscape:pageopacity="0"
     inkscape:pageshadow="2"
     inkscape:window-width="640"
     inkscape:window-height="480"
     id="namedview32"
     showgrid="false"
     inkscape:zoom="0.4609375"
     inkscape:cx="256"
     inkscape:cy="256"
     inkscape:window-x="0"
     inkscape:window-y="27"
     inkscape:window-maximized="0"
     inkscape:current-layer="svg2" />
  <path
     d="m0,0h512v512h-512z"
     id="path4" />
  <g
     transform="matrix(18.68858,0,0,18.68858,-4999.91635,-38783.52114)"
     id="g6">
    <path
       d="m289.0344,2089.8569c0,4.6653-3.782,8.4473-8.4473,8.4473s-8.4473-3.782-8.4473-8.4473 3.782-8.4473 8.4473-8.4473 8.4473,3.782 8.4473,8.4473z"
       fill="#fff"
       transform="matrix(.94595,0,0,.94595,15.81373,107.86642)"
       id="path8" />
    <path
       d="m267.8442,2087.3134c7.3912,5.6601 19.3746,5.6601 26.7659.0004"
       fill="none"
       stroke="#fff"
       id="path10" />
    <path
       d="m289.0344,2089.8569c0,4.6653-3.782,8.4473-8.4473,8.4473s-8.4473-3.782-8.4473-8.4473 3.782-8.4473 8.4473-8.4473 8.4473,3.782 8.4473,8.4473z"
       transform="matrix(.49428,0,0,.49428,142.5459,1052.016)"
       id="path12" />
    <path
       d="m287.8167,2082.8557c0,1.7863-1.4481,3.2343-3.2343,3.2343s-3.2343-1.448-3.2343-3.2343 1.4481-3.2343 3.2343-3.2343 3.2343,1.448 3.2343,3.2343z"
       fill="#fff"
       transform="matrix(.72893,0,0,.72893,75.82557,564.36289)"
       id="path14" />
    <path
       d="m276.0312,2102.1854v-2.8104c0-3.5328-.0704-8.6209 3.2188-9.125-.5317-.6594-.875-1.5781-.875-2.5938 8e-05-2.0048 1.2893-3.625 2.875-3.625 .099,0 .1847-.014.2812,0 1.4479.1861 2.5938,1.7453 2.5938,3.625 0,1.0413-.3507,1.9622-.9062,2.625 3.0112.5602 3.2188,5.5708 3.2188,9.0938v2.8866"
       fill="#fff"
       fill-rule="evenodd"
       stroke="#000"
       id="path16" />
    <path
       d="m267.8442,2081.361c7.3807-6.1675 19.3471-6.1675 26.7278-.0005"
       fill="none"
       stroke="#fff"
       id="path18" />
    <path
       d="m278.2089,2102.0364v-5.7109"
       fill="none"
       stroke="#000"
       id="path20" />
    <path
       d="m268.0497,2075.7061h26.4314v26.4314h-26.4314z"
       fill="none"
       stroke="#000"
       id="path22" />
    <path
       d="m284.2209,2102.0364v-5.7109"
       fill="none"
       stroke="#000"
       id="path24" />
    <path
       d="m319.2131,2083.0916c0,1.0178-.5421,1.843-1.2108,1.843s-1.2108-.8252-1.2108-1.843 .5421-1.8431 1.2108-1.8431 1.2108.8252 1.2108,1.8431z"
       fill="#fff"
       stroke="#000"
       stroke-width=".4442"
       transform="matrix(2.41998,0,0,2.09421,-488.32372,-2274.5508)"
       id="path26" />
    <path
       d="m280.8915,2087.8594c0,.725-.2385,1.3127-.5327,1.3127s-.5327-.5877-.5327-1.3127 .2385-1.3128.5327-1.3128 .5327.5878.5327,1.3128z"
       transform="matrix(1.02532,0,0,.95294,-7.19836,98.3283)"
       id="path28" />
    <path
       d="m280.8915,2087.8594c0,.725-.2385,1.3127-.5327,1.3127s-.5327-.5877-.5327-1.3127 .2385-1.3128.5327-1.3128 .5327.5878.5327,1.3128z"
       transform="matrix(1.02532,0,0,.95294,-5.20863,98.3283)"
       id="path30" />
  </g>
</svg>
