<?xml version="1.0" encoding="UTF-8" standalone="no"?>
<!-- Created with Inkscape (http://www.inkscape.org/) -->

<svg
   xmlns:dc="http://purl.org/dc/elements/1.1/"
   xmlns:cc="http://creativecommons.org/ns#"
   xmlns:rdf="http://www.w3.org/1999/02/22-rdf-syntax-ns#"
   xmlns:svg="http://www.w3.org/2000/svg"
   xmlns="http://www.w3.org/2000/svg"
   xmlns:xlink="http://www.w3.org/1999/xlink"
   xmlns:sodipodi="http://sodipodi.sourceforge.net/DTD/sodipodi-0.dtd"
   xmlns:inkscape="http://www.inkscape.org/namespaces/inkscape"
   width="64"
   height="64"
   id="svg2"
   version="1.1"
   inkscape:version="0.48.4 r9939"
   sodipodi:docname="bazooka.svg"
   inkscape:export-filename="/home/jami/Projects/java/valley-of-bones/art/exported/bazooka-overlay.png"
   inkscape:export-xdpi="90"
   inkscape:export-ydpi="90">
  <defs
     id="defs4">
    <linearGradient
       id="linearGradient3834">
      <stop
         style="stop-color:#505050;stop-opacity:1;"
         offset="0"
         id="stop3836" />
      <stop
         style="stop-color:#646464;stop-opacity:1;"
         offset="1"
         id="stop3838" />
    </linearGradient>
    <linearGradient
       id="linearGradient3775">
      <stop
         style="stop-color:#dedede;stop-opacity:1;"
         offset="0"
         id="stop3777" />
      <stop
         style="stop-color:#878787;stop-opacity:1;"
         offset="1"
         id="stop3779" />
    </linearGradient>
    <linearGradient
       inkscape:collect="always"
       id="linearGradient3924">
      <stop
         style="stop-color:#000000;stop-opacity:1;"
         offset="0"
         id="stop3926" />
      <stop
         style="stop-color:#000000;stop-opacity:0;"
         offset="1"
         id="stop3928" />
    </linearGradient>
    <radialGradient
       inkscape:collect="always"
       xlink:href="#linearGradient3924"
       id="radialGradient3930"
       cx="28.214287"
       cy="39.297619"
       fx="28.214287"
       fy="39.297619"
       r="25.862462"
       gradientTransform="matrix(1.1289714,0,0,0.81649893,-3.6388362,7.2111556)"
       gradientUnits="userSpaceOnUse" />
    <radialGradient
       inkscape:collect="always"
       xlink:href="#linearGradient3924-9"
       id="radialGradient3930-4"
       cx="28.214287"
       cy="39.297619"
       fx="28.214287"
       fy="39.297619"
       r="25.862461"
       gradientTransform="matrix(1.1289714,0,0,0.81649893,-3.6388362,7.2111556)"
       gradientUnits="userSpaceOnUse" />
    <linearGradient
       inkscape:collect="always"
       id="linearGradient3924-9">
      <stop
         style="stop-color:#000000;stop-opacity:1;"
         offset="0"
         id="stop3926-1" />
      <stop
         style="stop-color:#000000;stop-opacity:0;"
         offset="1"
         id="stop3928-2" />
    </linearGradient>
    <linearGradient
       inkscape:collect="always"
       xlink:href="#linearGradient3775"
       id="linearGradient3781"
       x1="45.538124"
       y1="16.935846"
       x2="26.862448"
       y2="27.945923"
       gradientUnits="userSpaceOnUse" />
    <linearGradient
       inkscape:collect="always"
       xlink:href="#linearGradient3775"
       id="linearGradient3808"
       x1="46.044472"
       y1="1005.7142"
       x2="29.042105"
       y2="1018.8442"
       gradientUnits="userSpaceOnUse" />
    <linearGradient
       inkscape:collect="always"
       xlink:href="#linearGradient3775"
       id="linearGradient3816"
       x1="41.843082"
       y1="1008.23"
       x2="24.646822"
       y2="1023.48"
       gradientUnits="userSpaceOnUse" />
    <linearGradient
       inkscape:collect="always"
       xlink:href="#linearGradient3775"
       id="linearGradient3824"
       x1="48.392254"
       y1="1015.3531"
       x2="12.361336"
       y2="1041.6134"
       gradientUnits="userSpaceOnUse" />
    <linearGradient
       inkscape:collect="always"
       xlink:href="#linearGradient3775"
       id="linearGradient3832"
       x1="55.392773"
       y1="1016.7441"
       x2="32.189281"
       y2="1040.5424"
       gradientUnits="userSpaceOnUse" />
    <linearGradient
       inkscape:collect="always"
       xlink:href="#linearGradient3834"
       id="linearGradient3840"
       x1="36.459934"
       y1="1012.4709"
       x2="49.203484"
       y2="1001.324"
       gradientUnits="userSpaceOnUse" />
  </defs>
  <sodipodi:namedview
     id="base"
     pagecolor="#000000"
     bordercolor="#666666"
     borderopacity="1.0"
     inkscape:pageopacity="0"
     inkscape:pageshadow="2"
     inkscape:zoom="5.1699999"
     inkscape:cx="19.092011"
     inkscape:cy="39.722271"
     inkscape:document-units="px"
     inkscape:current-layer="layer2"
     showgrid="false"
     inkscape:window-width="1918"
     inkscape:window-height="1050"
     inkscape:window-x="0"
     inkscape:window-y="0"
     inkscape:window-maximized="0" />
  <metadata
     id="metadata7">
    <rdf:RDF>
      <cc:Work
         rdf:about="">
        <dc:format>image/svg+xml</dc:format>
        <dc:type
           rdf:resource="http://purl.org/dc/dcmitype/StillImage" />
        <dc:title />
      </cc:Work>
    </rdf:RDF>
  </metadata>
  <g
     inkscape:label="guide"
     inkscape:groupmode="layer"
     id="layer1"
     transform="translate(0,-988.36218)"
     style="display:none">
    <path
       style="color:#000000;fill:none;stroke:#000000;stroke-width:0.1;stroke-miterlimit:4;stroke-dasharray:none;marker:none;visibility:visible;display:inline;overflow:visible;enable-background:accumulate"
       d="m 0,1004.3622 32,-16.00002 32,16.00002 0,32 -32,16 -32,-16 z"
       id="rect3750"
       inkscape:connector-curvature="0"
       sodipodi:nodetypes="ccccccc" />
  </g>
  <g
     transform="translate(0,-988.36218)"
     id="g3757"
     inkscape:groupmode="layer"
     inkscape:label="obj"
     style="display:inline">
    <g
       style="display:inline"
       id="g3801"
       transform="translate(-2.416666,-6.4742004)">
      <path
         sodipodi:nodetypes="acaca"
         inkscape:connector-curvature="0"
         id="rect3778"
         d="m 27.083334,18.404762 c 3.381205,-3.381205 14.345238,0 14.345238,0 0,0 -1.053507,7.894979 -4,9.880953 -2.859521,1.927354 -10.345238,0 -10.345238,0 0,0 -2.328963,-7.55199 0,-9.880953 z"
         style="color:#000000;fill:url(#linearGradient3781);fill-opacity:1;fill-rule:nonzero;stroke:none;stroke-width:1;marker:none;visibility:visible;display:inline;overflow:visible;enable-background:accumulate"
         transform="translate(0,988.36218)" />
      <path
         sodipodi:nodetypes="cccc"
         inkscape:connector-curvature="0"
         id="path3781"
         d="m 40.823413,1008.7661 -6.304572,-0.2035 c 0.48543,1.1313 0.709163,2.2954 2.576061,3.254 0.756996,-0.3729 1.620401,-0.6393 2.915017,-0.4745"
         style="fill:#000000;stroke:#333333;stroke-width:1;stroke-miterlimit:4;stroke-dasharray:none" />
      <path
         sodipodi:nodetypes="acaca"
         inkscape:connector-curvature="0"
         id="rect3778-5"
         d="m 27.083334,1006.7669 c 3.381205,-3.3812 14.345238,0 14.345238,0 0,0 -1.053507,7.895 -4,9.881 -2.859521,1.9273 -10.345238,0 -10.345238,0 0,0 -2.328963,-7.552 0,-9.881 z"
         style="color:#000000;fill:none;stroke:#333333;stroke-width:1;stroke-linecap:butt;stroke-linejoin:miter;stroke-miterlimit:4;stroke-opacity:1;stroke-dashoffset:0;marker:none;visibility:visible;display:inline;overflow:visible;enable-background:accumulate" />
    </g>
    <path
       style="fill:#b3b3b3;stroke:#333333;stroke-width:1px;stroke-linecap:butt;stroke-linejoin:miter;stroke-opacity:1;display:inline"
       d="m 32.972716,1009.4701 c -0.741343,-0.8689 -2.404887,-0.7593 -3.418687,-0.2331 -1.456992,0.7562 -3.095094,2.661 -2.55371,4.2108 1.279478,3.6625 10.91926,4.0289 10.91926,4.0289 0,0 5.085482,-4.2518 6.849971,-6.998 0.532457,-0.8288 1.521569,-1.8868 1.061727,-2.758 -0.559182,-1.0593 -2.496395,-1.484 -3.497418,-0.826 -0.794671,0.5222 -0.499375,2.8086 -0.499375,2.8086 l -5.539507,3.998 -3.525388,-1.9815 c 0,0 0.691814,-1.6769 0.203127,-2.2497 z"
       id="path3807-5"
       inkscape:connector-curvature="0"
       sodipodi:nodetypes="aaacsssccca"
       inkscape:transform-center-x="-6.5059642"
       inkscape:transform-center-y="0.26962389" />
    <path
       style="fill:url(#linearGradient3832);stroke:#333333;stroke-width:1px;stroke-linecap:butt;stroke-linejoin:miter;stroke-opacity:1;display:inline;fill-opacity:1"
       d="m 28.573553,1031.6594 c 0,0 2.511606,1.3893 3.692634,0.9252 1.259093,-0.4947 2.21226,-3.4024 2.21226,-3.4024 l 3.143288,0.4416 3.420261,0.061 -0.367685,4.2999 0.185836,7.2471 c 0,0 3.469633,0.3868 6.231854,0.2001 1.561172,-0.1056 3.028008,-0.065 3.189691,-1.194 0.239802,-1.6742 -4.693568,-1.9273 -4.693568,-1.9273 0,0 0.882957,-5.4495 0.286548,-9.4257 -0.155545,-1.0369 0.309357,-2.2441 -0.222038,-2.9081 -2.673107,-3.3401 -12.53669,-2.7469 -12.53669,-2.7469 l -6.150268,1.4086"
       id="path3811-6"
       inkscape:connector-curvature="0"
       sodipodi:nodetypes="cacccccsscsscc" />
    <path
       style="fill:url(#linearGradient3824);stroke:#333333;stroke-width:1px;stroke-linecap:butt;stroke-linejoin:miter;stroke-opacity:1;display:inline;fill-opacity:1"
       d="m 27.226191,1023.6855 c 0,0 -1.800608,2.1261 -1.72619,3.3929 0.06293,1.0712 1.785714,2.6785 1.785714,2.6785 l -0.609673,3.7456 0.200491,3.6653 -4.261297,-1.474 -7.59891,-2.3355 c 0,0 -1.747933,4.7594 -2.000388,6.8251 -0.153357,1.2549 0.382164,1.2727 1.256399,1.5078 1.487688,0.4001 2.931404,-3.8465 2.931404,-3.8465 0,0 3.983874,2.648 8.162595,3.4426 1.2653,0.2406 2.644351,0.7239 3.586046,0.3149 3.923886,-1.7044 5.47619,-11.6072 5.47619,-11.6072 l 0,-6.3095"
       id="path3811"
       inkscape:connector-curvature="0"
       sodipodi:nodetypes="cacccccsscsscc" />
    <path
       style="fill:url(#linearGradient3816);stroke:#333333;stroke-width:1px;stroke-linecap:butt;stroke-linejoin:miter;stroke-opacity:1;display:inline;fill-opacity:1"
       d="m 34.369048,1010.8284 2.976191,5.6547 -1.130953,1.5476 -1.72619,5.6548 -7.261905,0 -2.321428,-8.2738 1.785714,-4.5238 z"
       id="path3809"
       inkscape:connector-curvature="0" />
    <path
       style="color:#000000;fill:url(#linearGradient3840);fill-opacity:1;fill-rule:nonzero;stroke:#333333;stroke-width:1;stroke-miterlimit:4;marker:none;visibility:visible;display:inline;overflow:visible;enable-background:accumulate"
       d="m 15.178572,1006.3641 35.642856,0 c 1.108,0 3.338758,-1.9029 3.327652,-0.795 l -0.03378,3.3693 c -0.0058,0.5834 0.353621,3.4065 -0.04225,3.7714 -0.356017,0.3282 -2.726989,-1.1076 -3.251621,-1.1076 l -35.642856,0 c -1.108,0 -4,3.108 -4,2 l 0,-9.2381 c 0,-1.108 2.892,2 3.999997,2 z"
       id="rect3008"
       inkscape:connector-curvature="0"
       sodipodi:nodetypes="ssssssssss" />
    <rect
       style="color:#000000;fill:#333333;fill-opacity:1;fill-rule:nonzero;stroke:none;stroke-width:1;marker:none;visibility:visible;display:inline;overflow:visible;enable-background:accumulate"
       id="rect3867"
       width="1.6666679"
       height="6.5476198"
       x="43.869053"
       y="1011.5427"
       ry="0.83333331" />
    <path
       style="fill:url(#linearGradient3808);stroke:#333333;stroke-width:1px;stroke-linecap:butt;stroke-linejoin:miter;stroke-opacity:1;display:inline;fill-opacity:1"
       d="m 33.609759,1010.7898 c -0.667041,-0.9272 -1.941867,-1.6091 -3.079164,-1.5035 -1.634532,0.1518 -3.869431,1.2994 -3.951541,2.939 -0.194113,3.8747 8.597955,7.8445 8.597955,7.8445 0,0 6.312347,-2.0234 8.981099,-3.9029 0.805424,-0.5673 2.120401,-1.1744 2.022278,-2.155 -0.119052,-1.192 -1.753704,-2.315 -2.928813,-2.0825 -0.932855,0.1845 -1.520368,2.4138 -1.520368,2.4138 l -6.637325,1.6174 -0.538759,-1.7361 -0.681451,-1.4272 c 0,0 0.130248,-1.4596 -0.263911,-2.0075 z"
       id="path3807"
       inkscape:connector-curvature="0"
       sodipodi:nodetypes="aaacssscccca"
       inkscape:transform-center-x="-6.4645601"
       inkscape:transform-center-y="2.9122473" />
  </g>
  <g
     inkscape:groupmode="layer"
     id="layer2"
     inkscape:label="overlay"
     style="display:none">
    <path
       sodipodi:nodetypes="ccccc"
       inkscape:connector-curvature="0"
       id="rect3778-5-6"
       d="m 38.401788,12.32332 c 0,0 -10.041414,-3.3960703 -13.422619,-0.015 -0.920422,0.7565 -0.943108,3.4318 -0.699406,5.128 0.344555,-2.2525 0.747732,-5.4127 2.451928,-4.7192 0.231134,-2.0621 6.317388,-0.9048 11.670097,-0.3939 z"
       style="color:#000000;fill:#ffffff;stroke:none;stroke-width:1;marker:none;visibility:visible;display:inline;overflow:visible;enable-background:accumulate" />
    <path
       style="fill:#ffffff;stroke:none;display:inline"
       d="m 33.070895,36.665863 c -0.15918,7.5531 -1.647692,10.7858 -3.035714,14.3452 0.470087,-4.5415 0.968701,-9.0666 0.357143,-14.2262 z"
       id="path3896"
       inkscape:connector-curvature="0"
       sodipodi:nodetypes="cccc" />
    <path
       style="fill:#ffffff;fill-opacity:1;stroke:#dcd900;stroke-width:0.1;stroke-linecap:butt;stroke-linejoin:miter;stroke-miterlimit:4;stroke-opacity:1;stroke-dasharray:none"
       d="m 32.798171,23.809314 c -1.380514,-1.704353 -4.872839,0.825512 -4.349774,1.469284 l -0.544359,-1.49275 c 0.611316,-1.425931 2.779169,-1.961853 4.161209,-1.396749 z"
       id="path3019"
       inkscape:connector-curvature="0"
       sodipodi:nodetypes="ccccc" />
  </g>
</svg>
