<?xml version="1.0" encoding="UTF-8" standalone="no"?>
<!-- Created with Inkscape (http://www.inkscape.org/) -->

<svg
   xmlns:dc="http://purl.org/dc/elements/1.1/"
   xmlns:cc="http://creativecommons.org/ns#"
   xmlns:rdf="http://www.w3.org/1999/02/22-rdf-syntax-ns#"
   xmlns:svg="http://www.w3.org/2000/svg"
   xmlns="http://www.w3.org/2000/svg"
   xmlns:xlink="http://www.w3.org/1999/xlink"
   xmlns:sodipodi="http://sodipodi.sourceforge.net/DTD/sodipodi-0.dtd"
   xmlns:inkscape="http://www.inkscape.org/namespaces/inkscape"
   width="64"
   height="64"
   id="svg2"
   version="1.1"
   inkscape:version="0.48.2 r9819"
   sodipodi:docname="marine.svg"
   inkscape:export-filename="/home/jami/Projects/java/valley-of-bones/art/exported/marine-overlay.png"
   inkscape:export-xdpi="90"
   inkscape:export-ydpi="90">
  <defs
     id="defs4">
    <linearGradient
       id="linearGradient3810">
      <stop
         style="stop-color:#969696;stop-opacity:1;"
         offset="0"
         id="stop3812" />
      <stop
         style="stop-color:#bebebe;stop-opacity:1;"
         offset="1"
         id="stop3814" />
    </linearGradient>
    <linearGradient
       id="linearGradient3802">
      <stop
         style="stop-color:#3f3f3f;stop-opacity:1;"
         offset="0"
         id="stop3804" />
      <stop
         style="stop-color:#8b8b8b;stop-opacity:1;"
         offset="1"
         id="stop3806" />
    </linearGradient>
    <linearGradient
       id="linearGradient3775">
      <stop
         style="stop-color:#878787;stop-opacity:1;"
         offset="0"
         id="stop3777" />
      <stop
         style="stop-color:#dedede;stop-opacity:1;"
         offset="1"
         id="stop3779" />
    </linearGradient>
    <linearGradient
       id="linearGradient3761">
      <stop
         style="stop-color:#000000;stop-opacity:1;"
         offset="0"
         id="stop3763" />
      <stop
         style="stop-color:#444444;stop-opacity:1;"
         offset="1"
         id="stop3765" />
    </linearGradient>
    <linearGradient
       inkscape:collect="always"
       xlink:href="#linearGradient3761"
       id="linearGradient3773"
       x1="40.588161"
       y1="1024.3005"
       x2="33.170921"
       y2="1006.821"
       gradientUnits="userSpaceOnUse" />
    <linearGradient
       inkscape:collect="always"
       xlink:href="#linearGradient3775"
       id="linearGradient3781"
       x1="20.001472"
       y1="1003.7289"
       x2="44.902314"
       y2="1003.7289"
       gradientUnits="userSpaceOnUse" />
    <linearGradient
       inkscape:collect="always"
       xlink:href="#linearGradient3775"
       id="linearGradient3800"
       gradientUnits="userSpaceOnUse"
       x1="24.047176"
       y1="1013.3245"
       x2="41.997704"
       y2="994.80756" />
    <linearGradient
       inkscape:collect="always"
       xlink:href="#linearGradient3802"
       id="linearGradient3808"
       x1="27.706665"
       y1="1006.853"
       x2="41.865242"
       y2="993.73047"
       gradientUnits="userSpaceOnUse" />
    <linearGradient
       inkscape:collect="always"
       xlink:href="#linearGradient3810"
       id="linearGradient3816"
       x1="14.022654"
       y1="1027.119"
       x2="26.768621"
       y2="1011.715"
       gradientUnits="userSpaceOnUse" />
    <linearGradient
       inkscape:collect="always"
       xlink:href="#linearGradient3810"
       id="linearGradient3824"
       x1="35.503342"
       y1="1023.5289"
       x2="55.181953"
       y2="1005.5576"
       gradientUnits="userSpaceOnUse" />
    <linearGradient
       inkscape:collect="always"
       xlink:href="#linearGradient3810"
       id="linearGradient3832"
       x1="25.628382"
       y1="1040.453"
       x2="43.360874"
       y2="1026.6628"
       gradientUnits="userSpaceOnUse" />
    <linearGradient
       inkscape:collect="always"
       xlink:href="#linearGradient3810-9"
       id="linearGradient3816-9"
       x1="14.022654"
       y1="1027.119"
       x2="26.768621"
       y2="1011.715"
       gradientUnits="userSpaceOnUse" />
    <linearGradient
       id="linearGradient3810-9">
      <stop
         style="stop-color:#969696;stop-opacity:1;"
         offset="0"
         id="stop3812-7" />
      <stop
         style="stop-color:#bebebe;stop-opacity:1;"
         offset="1"
         id="stop3814-4" />
    </linearGradient>
    <linearGradient
       gradientTransform="translate(0,1.0111471e-5)"
       y2="1011.715"
       x2="26.768621"
       y1="1027.119"
       x1="14.022654"
       gradientUnits="userSpaceOnUse"
       id="linearGradient3027-1"
       xlink:href="#linearGradient3810-9-7"
       inkscape:collect="always" />
    <linearGradient
       id="linearGradient3810-9-7">
      <stop
         style="stop-color:#969696;stop-opacity:1;"
         offset="0"
         id="stop3812-7-3" />
      <stop
         style="stop-color:#bebebe;stop-opacity:1;"
         offset="1"
         id="stop3814-4-8" />
    </linearGradient>
    <linearGradient
       inkscape:collect="always"
       xlink:href="#linearGradient3810-4"
       id="linearGradient3816-98"
       x1="14.022654"
       y1="1027.119"
       x2="26.768621"
       y2="1011.715"
       gradientUnits="userSpaceOnUse" />
    <linearGradient
       id="linearGradient3810-4">
      <stop
         style="stop-color:#969696;stop-opacity:1;"
         offset="0"
         id="stop3812-72" />
      <stop
         style="stop-color:#bebebe;stop-opacity:1;"
         offset="1"
         id="stop3814-5" />
    </linearGradient>
    <linearGradient
       inkscape:collect="always"
       xlink:href="#linearGradient3761-8"
       id="linearGradient3773-8"
       x1="40.588161"
       y1="1024.3005"
       x2="33.170921"
       y2="1006.821"
       gradientUnits="userSpaceOnUse" />
    <linearGradient
       id="linearGradient3761-8">
      <stop
         style="stop-color:#000000;stop-opacity:1;"
         offset="0"
         id="stop3763-1" />
      <stop
         style="stop-color:#444444;stop-opacity:1;"
         offset="1"
         id="stop3765-0" />
    </linearGradient>
    <linearGradient
       inkscape:collect="always"
       xlink:href="#linearGradient3810-8"
       id="linearGradient3816-4"
       x1="14.022654"
       y1="1027.119"
       x2="26.768621"
       y2="1011.715"
       gradientUnits="userSpaceOnUse" />
    <linearGradient
       id="linearGradient3810-8">
      <stop
         style="stop-color:#969696;stop-opacity:1;"
         offset="0"
         id="stop3812-0" />
      <stop
         style="stop-color:#bebebe;stop-opacity:1;"
         offset="1"
         id="stop3814-1" />
    </linearGradient>
    <linearGradient
       inkscape:collect="always"
       xlink:href="#linearGradient3761-0"
       id="linearGradient3773-82"
       x1="40.588161"
       y1="1024.3005"
       x2="33.170921"
       y2="1006.821"
       gradientUnits="userSpaceOnUse" />
    <linearGradient
       id="linearGradient3761-0">
      <stop
         style="stop-color:#000000;stop-opacity:1;"
         offset="0"
         id="stop3763-3" />
      <stop
         style="stop-color:#444444;stop-opacity:1;"
         offset="1"
         id="stop3765-3" />
    </linearGradient>
    <linearGradient
       inkscape:collect="always"
       xlink:href="#linearGradient3810-92"
       id="linearGradient3824-4"
       x1="35.503342"
       y1="1023.5289"
       x2="55.181953"
       y2="1005.5576"
       gradientUnits="userSpaceOnUse" />
    <linearGradient
       id="linearGradient3810-92">
      <stop
         style="stop-color:#969696;stop-opacity:1;"
         offset="0"
         id="stop3812-3" />
      <stop
         style="stop-color:#bebebe;stop-opacity:1;"
         offset="1"
         id="stop3814-0" />
    </linearGradient>
  </defs>
  <sodipodi:namedview
     id="base"
     pagecolor="#000000"
     bordercolor="#666666"
     borderopacity="1.0"
     inkscape:pageopacity="0"
     inkscape:pageshadow="2"
     inkscape:zoom="27.265624"
     inkscape:cx="36.731582"
     inkscape:cy="29.108596"
     inkscape:document-units="px"
     inkscape:current-layer="g3757"
     showgrid="false"
     inkscape:window-width="1918"
     inkscape:window-height="1050"
     inkscape:window-x="0"
     inkscape:window-y="22"
     inkscape:window-maximized="0" />
  <metadata
     id="metadata7">
    <rdf:RDF>
      <cc:Work
         rdf:about="">
        <dc:format>image/svg+xml</dc:format>
        <dc:type
           rdf:resource="http://purl.org/dc/dcmitype/StillImage" />
        <dc:title />
      </cc:Work>
    </rdf:RDF>
  </metadata>
  <g
     inkscape:label="guide"
     inkscape:groupmode="layer"
     id="layer1"
     transform="translate(0,-988.36218)"
     style="display:none">
    <path
       style="color:#000000;fill:none;stroke:#000000;stroke-width:0.1;stroke-miterlimit:4;stroke-dasharray:none;marker:none;visibility:visible;display:inline;overflow:visible;enable-background:accumulate"
       d="m 0,1004.3622 32,-16.00002 32,16.00002 0,32 -32,16 -32,-16 z"
       id="rect3750"
       inkscape:connector-curvature="0"
       sodipodi:nodetypes="ccccccc" />
  </g>
  <g
     transform="translate(0,-988.36218)"
     id="g3757"
     inkscape:groupmode="layer"
     inkscape:label="marine"
     style="display:inline">
    <path
       style="color:#000000;fill:#b3b3b3;fill-opacity:1;fill-rule:nonzero;stroke:#000000;stroke-width:0.81737822;marker:none;visibility:visible;display:inline;overflow:visible;enable-background:accumulate"
       d="m 19.016239,1010.9685 c 1.422044,-2.141 5.900449,-1.6348 5.900449,-1.6348 l 7.535205,0 7.535206,0 c 0,0 4.478405,-0.5062 5.900449,1.6348 3.286117,4.9473 -4.90427,17.5152 -4.90427,17.5152 l -17.06277,0 c 0,0 -8.190386,-12.5679 -4.904269,-17.5152 z"
       id="rect3760"
       inkscape:connector-curvature="0"
       sodipodi:nodetypes="scccsccs" />
    <path
       style="color:#000000;fill:url(#linearGradient3800);fill-opacity:1.0;fill-rule:nonzero;stroke:#000000;stroke-width:0.81737822000000004;marker:none;visibility:visible;display:inline;overflow:visible;enable-background:accumulate"
       d="m 44.493625,1005.349 c 0,3.0834 -1.347816,4.2401 -3.526942,6.2607 -2.179124,2.0207 -5.189558,1.6357 -8.51479,1.6357 -3.325232,0 -6.335666,0.385 -8.51479,-1.6357 -2.179126,-2.0206 -3.526942,-3.1773 -3.526942,-6.2607 0,-6.16682 5.391267,-11.166 12.041732,-11.166 6.650465,0 12.041732,4.99918 12.041732,11.166 z"
       id="path2990"
       inkscape:connector-curvature="0"
       sodipodi:nodetypes="sssssss" />
    <path
       style="color:#000000;fill:url(#linearGradient3808);fill-opacity:1.0;fill-rule:nonzero;stroke:#000000;stroke-width:0.81737822000000004;marker:none;visibility:visible;display:inline;overflow:visible;enable-background:accumulate"
       d="m 23.87672,1000.5323 c 0.867771,-1.25959 2.783331,-1.35774 4.287586,-1.63478 1.405557,-0.25887 2.858392,0 4.287587,0 1.429196,0 2.88203,-0.25887 4.287587,0 1.504256,0.27704 3.419816,0.37519 4.287587,1.63478 0.717667,1.0417 0.561193,2.6612 0,3.7949 -0.797359,1.6107 -2.584786,2.6943 -4.287587,3.2695 -1.354038,0.4573 -2.858391,-1.6347 -4.287587,-1.6347 -1.429195,0 -2.933548,2.092 -4.287587,1.6347 -1.7028,-0.5752 -3.490227,-1.6588 -4.287586,-3.2695 -0.561193,-1.1337 -0.717667,-2.7532 0,-3.7949 z"
       id="rect3847"
       inkscape:connector-curvature="0"
       sodipodi:nodetypes="sssssssssss" />
    <path
       style="color:#000000;fill:url(#linearGradient3832);fill-opacity:1;fill-rule:nonzero;stroke:#000000;stroke-width:0.81737822000000004;marker:none;visibility:visible;display:inline;overflow:visible;enable-background:accumulate"
       d="m 23.920508,1028.9836 -2.452134,9.6042 -3.315923,1.5663 -0.770968,1.4989 12.797077,0 0.536859,-4.4661 1.78756,-2.8648 1.647037,2.9562 0.65184,4.3747 12.771534,0 -0.607013,-1.4797 -3.479878,-1.5855 -2.452135,-9.6042 -7.586291,0 -1.91573,0 z"
       id="rect3768"
       inkscape:connector-curvature="0"
       sodipodi:nodetypes="cccccccccccccccc" />
    <path
       style="fill:url(#linearGradient3824);fill-opacity:1;stroke:#000000;stroke-width:0.81737822px;stroke-linecap:butt;stroke-linejoin:miter;stroke-opacity:1"
       d="m 41.508817,1008.3355 c 0,0 4.074887,-1.3591 5.802596,-0.8488 1.574678,0.4651 2.31375,1.1932 3.162279,2.4659 0.510107,0.7651 1.325933,2.717 1.325933,2.717 l 3.404722,4.3984 c 0.460856,0.7094 0.574652,1.4188 0.449146,2.1282 -0.163525,0.6867 -0.750634,0.7381 -1.290881,0.8597 l -13.008123,0.3319 -3.077458,-0.063 -1.274284,-1.1191 -0.635961,-0.7918 0.101684,-1.2882 0.853687,-0.5263 1.274145,-0.052 -0.118407,-1.4484 3.176221,1.2113 8.355045,0.3539 -5.821854,-2.6748"
       id="path3776-5"
       inkscape:connector-curvature="0"
       sodipodi:nodetypes="cssccccccccccccccc"
       inkscape:transform-center-x="-1.0966418"
       inkscape:transform-center-y="7.3382055" />
    <path
       style="color:#000000;fill:url(#linearGradient3773);fill-opacity:1;fill-rule:nonzero;stroke:none;stroke-width:1;marker:none;visibility:visible;display:inline;overflow:visible;enable-background:accumulate"
       d="m 15.069102,1021.6985 8.542916,-2.1189 9.835585,-8.5287 9.189259,-5.3239 9.189254,-5.3239 3.077497,4.7018 -8.549585,6.2867 -17.700966,10.5236 1.865487,4.4636 -1.386289,1.2243 -3.082401,-4.2844 -5.3446,6.933 z"
       id="rect3844"
       inkscape:connector-curvature="0"
       sodipodi:nodetypes="ccccccccccccc" />
    <path
       style="fill:url(#linearGradient3816);fill-opacity:1;stroke:#000000;stroke-width:0.81737822px;stroke-linecap:butt;stroke-linejoin:miter;stroke-opacity:1"
       d="m 20.339829,1009.9682 c 0,0 -3.963487,0.2688 -5.156967,1.6185 -1.155334,1.3065 -1.637152,3.5459 -0.944119,5.1463 0.365425,0.8439 1.489655,2.531 1.489655,2.531 l 0.625479,6.0011 c 0.08229,0.5185 0.329835,0.9378 0.899949,1.1636 0.321079,0.2338 0.639474,0.4729 1.055745,0.5163 l 7.109397,0.1972 c 0,0 2.36509,0.4394 3.194715,0.473 1.202647,0.049 1.921894,-1.489 2.099491,-2.6794 0.122825,-0.8233 -1.201312,-0.04 -1.808498,-0.9293 -0.296435,-0.4341 -0.04965,-1.0664 -0.417492,-1.2392 -0.668944,-0.3142 -1.271754,0.9732 -2.305809,1.0827 -2.464545,0.261 -5.662144,0.011 -5.662144,0.011 l 0.901438,-7.5755"
       id="path3776"
       inkscape:connector-curvature="0"
       sodipodi:nodetypes="csscccccssssscc"
       inkscape:transform-center-x="-4.1547992"
       inkscape:transform-center-y="5.1372933" />
  </g>
  <g
     inkscape:groupmode="layer"
     id="layer2"
     inkscape:label="overlay"
     style="display:none">
    <path
       style="fill:#ffffff;fill-opacity:1;stroke:none;display:inline"
       d="m 16.409628,22.81717 c -0.306222,0.164236 -0.589796,0.314736 -0.78125,0.53125 -1.155334,1.3065 -1.630533,3.55585 -0.9375,5.15625 0.01523,0.03516 0.04477,0.08709 0.0625,0.125 l 0.25,0.125 c 1.122888,-1.467202 2.094664,-3.056506 1.71875,-5.75 l -0.3125,-0.1875 z"
       id="path3776-4"
       inkscape:connector-curvature="0" />
    <path
       style="fill:#ffffff;fill-opacity:1;stroke:none;display:inline"
       d="M 49.65625,20.625 48,21.8125 c 0.491871,0.633647 1.136341,1.214069 2.0625,1.75 l 0.34375,-0.125 c 0.05912,-0.342419 0.115234,-0.653332 0.0625,-0.9375 -0.119325,-0.643044 -0.416743,-1.291391 -0.8125,-1.875 z"
       id="path3776-4-8"
       inkscape:connector-curvature="0" />
    <path
       style="fill:#ffffff;stroke:none"
       d="m 24.585434,41.541154 -2.178456,8.817561 1.55604,-0.77802 2.645269,-7.935805 z"
       id="path3193"
       inkscape:connector-curvature="0" />
    <path
       style="fill:#ffffff;stroke:none;display:inline"
       d="m 40.429831,41.541154 2.178456,8.817561 -1.55604,-0.77802 -2.645269,-7.935805 z"
       id="path3193-4"
       inkscape:connector-curvature="0" />
    <path
       style="fill:#ffffff;stroke:none"
       d="m 44.3125,26.53125 c -0.05717,0.343378 0.0017,0.296961 -0.07205,0.633238 l 1.28125,0.15625 c 0.06583,-0.242822 -0.02308,-0.102346 0.0408,-0.351988 z m -0.521705,5.804262 -1.3125,0.03125 C 41.658409,34.269153 40.805297,35.729749 39.75,37.53125 l -2.5,1.25 3.15625,0 c 1.518393,-2.391567 2.489672,-4.186913 3.384545,-6.445738 z"
       id="path3231"
       inkscape:connector-curvature="0"
       sodipodi:nodetypes="ccccccccccc" />
    <path
       style="fill:#ffffff;stroke:none;display:inline"
       d="m 21.585512,30.275627 -0.25,1.526021 L 22.03125,31.625 C 21.734635,30.914821 21.818226,31.010296 21.585512,30.275627 z M 24.375,38.75 c 0.0079,0.0124 0.02337,0.01884 0.03125,0.03125 l 1,0 z"
       id="path3231-1"
       inkscape:connector-curvature="0"
       sodipodi:nodetypes="cccccccc" />
  </g>
</svg>
