<?xml version="1.0" encoding="UTF-8" standalone="no"?>
<!-- Created with Inkscape (http://www.inkscape.org/) -->

<svg
   xmlns:dc="http://purl.org/dc/elements/1.1/"
   xmlns:cc="http://creativecommons.org/ns#"
   xmlns:rdf="http://www.w3.org/1999/02/22-rdf-syntax-ns#"
   xmlns:svg="http://www.w3.org/2000/svg"
   xmlns="http://www.w3.org/2000/svg"
   xmlns:sodipodi="http://sodipodi.sourceforge.net/DTD/sodipodi-0.dtd"
   xmlns:inkscape="http://www.inkscape.org/namespaces/inkscape"
   width="64"
   height="64"
   id="svg2"
   version="1.1"
   inkscape:version="0.48.4 r9939"
   sodipodi:docname="saboteur-overlay.svg"
   inkscape:export-filename="/home/jami/Projects/java/valley-of-bones/art/exported/saboteur-overlay.png"
   inkscape:export-xdpi="90"
   inkscape:export-ydpi="90">
  <defs
     id="defs4" />
  <sodipodi:namedview
     id="base"
     pagecolor="#000000"
     bordercolor="#666666"
     borderopacity="1.0"
     inkscape:pageopacity="0"
     inkscape:pageshadow="2"
     inkscape:zoom="11.766257"
     inkscape:cx="27.755613"
     inkscape:cy="31.080288"
     inkscape:document-units="px"
     inkscape:current-layer="g3757"
     showgrid="false"
     inkscape:window-width="1920"
     inkscape:window-height="1024"
     inkscape:window-x="1920"
     inkscape:window-y="27"
     inkscape:window-maximized="1" />
  <metadata
     id="metadata7">
    <rdf:RDF>
      <cc:Work
         rdf:about="">
        <dc:format>image/svg+xml</dc:format>
        <dc:type
           rdf:resource="http://purl.org/dc/dcmitype/StillImage" />
        <dc:title />
      </cc:Work>
    </rdf:RDF>
  </metadata>
  <g
     inkscape:label="guide"
     inkscape:groupmode="layer"
     id="layer1"
     transform="translate(0,-988.36218)"
     style="display:none">
    <path
       style="color:#000000;fill:none;stroke:#000000;stroke-width:0.1;stroke-miterlimit:4;stroke-dasharray:none;marker:none;visibility:visible;display:inline;overflow:visible;enable-background:accumulate"
       d="m 0,1004.3622 32,-16.00002 32,16.00002 0,32 -32,16 -32,-16 z"
       id="rect3750"
       inkscape:connector-curvature="0"
       sodipodi:nodetypes="ccccccc" />
  </g>
  <g
     transform="translate(0,-988.36218)"
     id="g3757"
     inkscape:groupmode="layer"
     inkscape:label="marine"
     style="display:none">
    <path
       style="color:#000000;fill:#b3b3b3;fill-opacity:1;fill-rule:nonzero;stroke:#000000;stroke-width:0.81497538;marker:none;visibility:visible;display:inline;overflow:visible;enable-background:accumulate"
       d="m 17.958032,1016.0747 c 1.417863,-2.1346 5.883103,-1.6299 5.883103,-1.6299 l 7.513055,0 7.513054,0 c 0,0 4.465241,-0.5047 5.883104,1.6299 3.276456,4.9328 -4.889853,14.2038 -4.889853,14.2038 l -17.012611,0 c 0,0 -8.16631,-9.271 -4.889852,-14.2038 z"
       id="rect3760"
       inkscape:connector-curvature="0"
       sodipodi:nodetypes="scccsccs" />
    <path
       style="fill:#b3b3b3;stroke:#000000;stroke-width:0.81497538px;stroke-linecap:butt;stroke-linejoin:miter;stroke-opacity:1"
       d="m 18.020442,1021.6814 c -0.567554,-0.7202 -4.101433,-2.9961 -4.101433,-2.9961 l -6.8680438,-4.4936 c 0,0 0.342855,-3.5169 0.8486609,-6.2109 0.2288865,-1.2191 0.1685062,-3.322 1.1716947,-4.0515 1.2143052,-0.8831 3.0163022,0.7403 3.6053302,2.1214 0.476962,1.1183 -1.369339,1.4383 -1.969467,2.4956 -1.2343303,2.1748 0.475291,4.2035 0.142789,3.9957 l 5.549471,2.3475 c 1.943639,-1.3815 2.460018,-0.1938 3.351371,0.3186"
       id="path3776"
       inkscape:connector-curvature="0"
       sodipodi:nodetypes="cccssssccc"
       inkscape:transform-center-x="3.1366227"
       inkscape:transform-center-y="-6.521541" />
    <path
       style="color:#000000;fill:#b3b3b3;fill-opacity:1;fill-rule:nonzero;stroke:#000000;stroke-width:0.81497538;marker:none;visibility:visible;display:inline;overflow:visible;enable-background:accumulate"
       d="m 43.360522,1010.4718 c 0,3.0743 -1.343854,4.2276 -3.516573,6.2423 -2.172719,2.0147 -5.174303,1.6309 -8.489759,1.6309 -3.315458,0 -6.317042,0.3838 -8.48976,-1.6309 -2.17272,-2.0147 -3.516574,-3.168 -3.516574,-6.2423 0,-6.1487 5.375419,-11.1333 12.006334,-11.1333 6.630914,0 12.006332,4.9846 12.006332,11.1333 z"
       id="path2990"
       inkscape:connector-curvature="0"
       sodipodi:nodetypes="sssssss" />
    <path
       style="color:#000000;fill:#4d4d4d;fill-opacity:1;fill-rule:nonzero;stroke:#000000;stroke-width:0.81497538;marker:none;visibility:visible;display:inline;overflow:visible;enable-background:accumulate"
       d="m 22.804225,1005.6691 c 0.86522,-1.2558 2.775149,-1.3536 4.274982,-1.6299 1.401425,-0.2581 2.849988,0 4.274983,0 1.424994,0 2.873558,-0.2581 4.274983,0 1.499833,0.2763 3.409762,0.3741 4.274982,1.6299 0.715557,1.0387 0.559544,2.6535 0,3.7838 -0.795015,1.606 -2.577188,2.6864 -4.274982,3.2599 -1.350058,0.4561 -2.849989,-1.6299 -4.274983,-1.6299 -1.424995,0 -2.924925,2.086 -4.274983,1.6299 -1.697795,-0.5735 -3.479967,-1.6539 -4.274982,-3.2599 -0.559544,-1.1303 -0.715558,-2.7451 0,-3.7838 z"
       id="rect3847"
       inkscape:connector-curvature="0"
       sodipodi:nodetypes="sssssssssss" />
    <path
       style="color:#000000;fill:#b3b3b3;fill-opacity:1;fill-rule:nonzero;stroke:#000000;stroke-width:0.81497538;marker:none;visibility:visible;display:inline;overflow:visible;enable-background:accumulate"
       d="m 22.847884,1030.777 -2.444926,7.9459 -4.074877,3.0562 12.759459,0 2.317586,-5.6793 2.292118,5.6793 12.73399,0 -4.074876,-3.0562 -2.444926,-7.9459 -7.563991,0 -1.910099,0 z"
       id="rect3768"
       inkscape:connector-curvature="0"
       sodipodi:nodetypes="cccccccccccc" />
    <g
       id="g3789"
       transform="matrix(0.60321138,0.54801543,-0.54801543,0.60321138,555.63992,395.67946)">
      <path
         transform="translate(-3.7344963,987.73976)"
         d="m 18.672481,12.2876 a 5.9648204,5.9648204 0 1 1 -11.9296407,0 5.9648204,5.9648204 0 1 1 11.9296407,0 z"
         sodipodi:ry="5.9648204"
         sodipodi:rx="5.9648204"
         sodipodi:cy="12.2876"
         sodipodi:cx="12.707661"
         id="path3015"
         style="color:#000000;fill:#000000;fill-opacity:1;fill-rule:nonzero;stroke:none;stroke-width:1;marker:none;visibility:visible;display:inline;overflow:visible;enable-background:accumulate"
         sodipodi:type="arc" />
      <rect
         y="990.86127"
         x="7.9876723"
         height="4.3569121"
         width="1.9709842"
         id="rect3017"
         style="color:#000000;fill:#000000;fill-opacity:1;fill-rule:nonzero;stroke:none;stroke-width:1;marker:none;visibility:visible;display:inline;overflow:visible;enable-background:accumulate" />
      <path
         sodipodi:nodetypes="ccccccccccccc"
         transform="translate(0,988.36218)"
         inkscape:connector-curvature="0"
         id="path3019"
         d="m 7.9876727,2.4845468 -0.9336241,-1.1410961 1.3485681,0.51868 -0.8298881,-2.28219216 1.3485682,1.97098416 0,-2.9046082 0.622416,2.6971362 0.9336242,-2.4896642 -0.414944,2.4896642 1.141096,-1.76351216 -0.829888,2.07472016 1.141096,-0.414944 -1.5560402,1.5560401"
         style="fill:#d45500;stroke:none" />
    </g>
    <g
       id="g3839"
       transform="matrix(0.81497539,0,0,0.81497539,35.710203,194.05472)">
      <rect
         transform="matrix(0.73268997,0.68056257,-0.68056257,0.73268997,0,0)"
         y="753.35034"
         x="687.82471"
         height="2.4896643"
         width="15.975346"
         id="rect3794"
         style="color:#000000;fill:#d45500;fill-opacity:1;fill-rule:nonzero;stroke:#803300;stroke-width:0.5;stroke-miterlimit:4;stroke-dasharray:none;marker:none;visibility:visible;display:inline;overflow:visible;enable-background:accumulate" />
      <rect
         transform="matrix(0.73268997,0.68056257,-0.68056257,0.73268997,0,0)"
         y="749.95898"
         x="688.53699"
         height="2.4896643"
         width="15.975346"
         id="rect3794-9-7"
         style="color:#000000;fill:#d45500;fill-opacity:1;fill-rule:nonzero;stroke:#803300;stroke-width:0.5;stroke-miterlimit:4;stroke-dasharray:none;marker:none;visibility:visible;display:inline;overflow:visible;enable-background:accumulate" />
      <rect
         transform="matrix(0.73268997,0.68056257,-0.68056257,0.73268997,0,0)"
         y="751.70203"
         x="688.03229"
         height="2.4896643"
         width="15.975346"
         id="rect3794-9"
         style="color:#000000;fill:#d45500;fill-opacity:1;fill-rule:nonzero;stroke:#803300;stroke-width:0.5;stroke-miterlimit:4;stroke-dasharray:none;marker:none;visibility:visible;display:inline;overflow:visible;enable-background:accumulate" />
    </g>
    <path
       style="fill:#b3b3b3;stroke:#000000;stroke-width:0.81497538px;stroke-linecap:butt;stroke-linejoin:miter;stroke-opacity:1;display:inline"
       d="m 43.565156,1013.8362 c 0,0 3.951836,0.2681 5.141807,1.6138 1.151938,1.3026 1.63234,3.5354 0.941344,5.1311 -0.364351,0.8415 -2.312725,1.4892 -2.312725,1.4892 l -0.693496,8.1781 -8.141138,0.7113 c 0,0 -1.118488,1.5101 -1.945673,1.5436 -1.199111,0.049 -2.815319,-0.8149 -2.992382,-2.0018 -0.182251,-1.2216 1.226376,-2.3444 2.344297,-2.8694 2.256545,-1.0601 7.479091,0.056 7.479091,0.056 l -1.157366,-7.7601"
       id="path3776-5"
       inkscape:connector-curvature="0"
       sodipodi:nodetypes="csscccssscc"
       inkscape:transform-center-x="4.142585"
       inkscape:transform-center-y="5.1221924" />
  </g>
  <g
     inkscape:groupmode="layer"
     id="layer2"
     inkscape:label="overlay"
     style="display:inline">
    <path
       style="color:#000000;fill:#ffffff;fill-opacity:1;fill-rule:nonzero;stroke:none;stroke-width:1;marker:none;visibility:visible;display:inline;overflow:visible;enable-background:accumulate"
       d="m 21.116061,27.057698 c -0.50755,0.11487 -1.010639,-0.11948 -1.451675,0.127239 l -1.451675,5.42468 c 1.067146,4.306603 5.093597,8.888325 5.093597,8.888325 l 6.698078,0 -3.208965,-2.979754 1.528079,-1.731822 0.12734,0.127339 0.916847,-0.993251 0.305616,0.280148 1.298867,-1.196995 4.253153,4.074877 c 0.178096,-0.106009 0.668654,-0.199459 0.840443,-0.280148 1.333675,-0.626509 4.091451,-0.34149 5.8067,-0.12734 0.535875,-0.76486 0.282143,-1.273499 0.814975,-2.241183 l -0.713103,-4.864384 1.196995,-4.304088 c -0.467181,-0.287836 -1.019687,-0.08168 -1.579015,-0.203643 -0.496396,0.537532 -1.089163,1.08682 -1.757291,1.706356 -2.172718,2.0147 -5.165381,1.62995 -8.480837,1.62995 -3.315458,0 -6.308119,0.38475 -8.480838,-1.62995 -0.668128,-0.619536 -1.260894,-1.168824 -1.757291,-1.706356 z"
       id="rect3760-5"
       inkscape:connector-curvature="0"
       sodipodi:nodetypes="ccccccccccccccccccsssc" />
  </g>
</svg>
