<?xml version="1.0" encoding="UTF-8" standalone="no"?>
<!-- Created with Inkscape (http://www.inkscape.org/) -->

<svg
   xmlns:dc="http://purl.org/dc/elements/1.1/"
   xmlns:cc="http://creativecommons.org/ns#"
   xmlns:rdf="http://www.w3.org/1999/02/22-rdf-syntax-ns#"
   xmlns:svg="http://www.w3.org/2000/svg"
   xmlns="http://www.w3.org/2000/svg"
   xmlns:xlink="http://www.w3.org/1999/xlink"
   xmlns:sodipodi="http://sodipodi.sourceforge.net/DTD/sodipodi-0.dtd"
   xmlns:inkscape="http://www.inkscape.org/namespaces/inkscape"
   width="64"
   height="64"
   id="svg2"
   version="1.1"
   inkscape:version="0.48.4 r9939"
   sodipodi:docname="sniper.svg"
   inkscape:export-filename="/home/jami/Projects/java/valley-of-bones/art/exported/sniper-overlay.png"
   inkscape:export-xdpi="90"
   inkscape:export-ydpi="90">
  <defs
     id="defs4">
    <linearGradient
       id="linearGradient3803">
      <stop
         style="stop-color:#afafaf;stop-opacity:1;"
         offset="0"
         id="stop3805" />
      <stop
         style="stop-color:#6e6e6e;stop-opacity:1;"
         offset="1"
         id="stop3807" />
    </linearGradient>
    <linearGradient
       id="linearGradient3795">
      <stop
         style="stop-color:#646464;stop-opacity:1;"
         offset="0"
         id="stop3797" />
      <stop
         style="stop-color:#323232;stop-opacity:1;"
         offset="1"
         id="stop3799" />
    </linearGradient>
    <radialGradient
       inkscape:collect="always"
       xlink:href="#linearGradient3795"
       id="radialGradient3801"
       cx="40.715647"
       cy="16.090568"
       fx="40.715647"
       fy="16.090568"
       r="7.215745"
       gradientTransform="matrix(1,0,0,0.68382741,0,5.0873965)"
       gradientUnits="userSpaceOnUse" />
    <radialGradient
       inkscape:collect="always"
       xlink:href="#linearGradient3803"
       id="radialGradient3811"
       cx="36.2206"
       cy="1011.0036"
       fx="36.2206"
       fy="1011.0036"
       r="12.178949"
       gradientTransform="matrix(1.5402589,-0.02542089,0.02195253,1.232939,-41.76258,-234.58138)"
       gradientUnits="userSpaceOnUse" />
    <radialGradient
       inkscape:collect="always"
       xlink:href="#linearGradient3803"
       id="radialGradient3819"
       cx="37.043743"
       cy="1019.5591"
       fx="37.043743"
       fy="1019.5591"
       r="5.3862104"
       gradientTransform="matrix(1.9387693,0.04672106,-0.06784813,2.8154721,34.39965,-1852.7117)"
       gradientUnits="userSpaceOnUse" />
    <radialGradient
       inkscape:collect="always"
       xlink:href="#linearGradient3803"
       id="radialGradient3827"
       cx="29.542389"
       cy="1013.4667"
       fx="29.542389"
       fy="1013.4667"
       r="11.092625"
       gradientTransform="matrix(1.6239052,0.0150952,-0.01871522,2.0133314,0.53559535,-1027.4234)"
       gradientUnits="userSpaceOnUse" />
    <radialGradient
       inkscape:collect="always"
       xlink:href="#linearGradient3803"
       id="radialGradient3835"
       cx="25.762106"
       cy="1024.375"
       fx="25.762106"
       fy="1024.375"
       r="10.882079"
       gradientTransform="matrix(1.9966513,0.03557854,-0.03599488,2.0200165,11.19643,-1045.7961)"
       gradientUnits="userSpaceOnUse" />
    <radialGradient
       inkscape:collect="always"
       xlink:href="#linearGradient3803"
       id="radialGradient3843"
       cx="14.932882"
       cy="1038.1187"
       fx="14.932882"
       fy="1038.1187"
       r="13.837299"
       gradientTransform="matrix(1.6076403,0.03893017,-0.03939843,1.6269773,31.826431,-651.45821)"
       gradientUnits="userSpaceOnUse" />
    <radialGradient
       inkscape:collect="always"
       xlink:href="#linearGradient3803-4"
       id="radialGradient3827-9"
       cx="29.542389"
       cy="1013.4667"
       fx="29.542389"
       fy="1013.4667"
       r="11.092625"
       gradientTransform="matrix(1.6239052,0.0150952,-0.01871522,2.0133314,0.53559535,-1027.4234)"
       gradientUnits="userSpaceOnUse" />
    <linearGradient
       id="linearGradient3803-4">
      <stop
         style="stop-color:#afafaf;stop-opacity:1;"
         offset="0"
         id="stop3805-1" />
      <stop
         style="stop-color:#6e6e6e;stop-opacity:1;"
         offset="1"
         id="stop3807-9" />
    </linearGradient>
  </defs>
  <sodipodi:namedview
     id="base"
     pagecolor="#000000"
     bordercolor="#666666"
     borderopacity="1.0"
     inkscape:pageopacity="0"
     inkscape:pageshadow="2"
     inkscape:zoom="8"
     inkscape:cx="16.645164"
     inkscape:cy="24.852613"
     inkscape:document-units="px"
     inkscape:current-layer="layer2"
     showgrid="false"
     inkscape:window-width="1920"
     inkscape:window-height="1024"
     inkscape:window-x="1920"
     inkscape:window-y="27"
     inkscape:window-maximized="1" />
  <metadata
     id="metadata7">
    <rdf:RDF>
      <cc:Work
         rdf:about="">
        <dc:format>image/svg+xml</dc:format>
        <dc:type
           rdf:resource="http://purl.org/dc/dcmitype/StillImage" />
        <dc:title></dc:title>
      </cc:Work>
    </rdf:RDF>
  </metadata>
  <g
     inkscape:label="guide"
     inkscape:groupmode="layer"
     id="layer1"
     transform="translate(0,-988.36218)"
     style="display:none">
    <path
       style="color:#000000;fill:none;stroke:#000000;stroke-width:0.1;stroke-miterlimit:4;stroke-dasharray:none;marker:none;visibility:visible;display:inline;overflow:visible;enable-background:accumulate"
       d="m 0,1004.3622 32,-16.00002 32,16.00002 0,32 -32,16 -32,-16 z"
       id="rect3750"
       inkscape:connector-curvature="0"
       sodipodi:nodetypes="ccccccc" />
  </g>
  <g
     transform="translate(0,-988.36218)"
     id="g3757"
     inkscape:groupmode="layer"
     inkscape:label="sniper"
     style="display:inline">
    <path
       style="color:#000000;fill:url(#radialGradient3835);fill-opacity:1;fill-rule:nonzero;stroke:#000000;stroke-width:0.72860312000000005;stroke-linecap:butt;stroke-linejoin:miter;stroke-miterlimit:4;stroke-opacity:1;stroke-dashoffset:0;marker:none;visibility:visible;display:inline;overflow:visible;enable-background:accumulate"
       d="m 23.029503,1013.672 c 4.968199,-1.2733 11.913776,3.0853 13.13969,8.2456 1.202224,5.0605 -7.785175,13.3839 -7.785175,13.3839 l -13.13969,-8.2454 c 0,0 2.912988,-12.1353 7.785175,-13.3841 z"
       id="rect3765"
       inkscape:connector-curvature="0"
       sodipodi:nodetypes="ssccs" />
    <path
       style="color:#000000;fill:url(#radialGradient3843);fill-opacity:1;fill-rule:nonzero;stroke:#000000;stroke-width:0.72860312;stroke-linecap:butt;stroke-linejoin:miter;stroke-miterlimit:4;stroke-opacity:1;stroke-dashoffset:0;marker:none;visibility:visible;display:inline;overflow:visible;enable-background:accumulate"
       d="m 15.340331,1027.0382 13.065548,8.2454 -3.723703,9.3609 2.543888,2.6906 -0.190826,1.864 -9.521956,-5.1643 1.991886,-3.9363 0.0761,-3.0245 -0.128476,-2.2054 -2.509071,0.728 -2.651024,0.9598 -4.4800457,3.5636 -8.3527685,-4.38 1.7505729,-0.9346 3.5451974,0.5101 z"
       id="rect3765-8"
       inkscape:connector-curvature="0"
       sodipodi:nodetypes="cccccccccccccccc" />
    <path
       style="fill:url(#radialGradient3819);stroke:#000000;stroke-width:0.72860312000000005px;stroke-linecap:butt;stroke-linejoin:miter;stroke-opacity:1;fill-opacity:1"
       d="m 35.423057,1021.2242 c 0,0 -2.75701,0.4551 -3.2331,1.5907 -0.487006,1.1616 0.145732,2.8421 1.106061,3.6233 1.029233,0.8372 2.761083,0.9058 3.913752,0.2651 1.49496,-0.831 3.500952,-3.2815 4.226807,-5.1918 0.465312,-1.2246 0.413152,-2.7907 0.413152,-2.7907 0,0 -0.01508,-1.3747 0.134037,-3.0157 0.11749,-1.293 0.201538,-2.4967 -0.434831,-3.2296 -0.495255,-0.5703 -1.636716,-0.6592 -2.212122,-0.1767 -0.489939,0.4109 -0.255244,1.9442 -0.255244,1.9442 l 0.08508,4.1534 z"
       id="path3855"
       inkscape:connector-curvature="0"
       sodipodi:nodetypes="csssscsssccc" />
    <path
       style="fill:url(#radialGradient3827);stroke:#000000;stroke-width:0.72860312000000005px;stroke-linecap:butt;stroke-linejoin:miter;stroke-opacity:1;display:inline;fill-opacity:1"
       d="m 24.473262,1015.2612 c 0,0 -0.926051,2.7352 -2.087093,3.0178 -1.187693,0.289 -2.665508,-0.6591 -3.233088,-1.7806 -0.608236,-1.2021 -0.362124,-2.9838 0.451654,-4.0468 1.731998,-2.2618 11.049168,-3.7072 11.049168,-3.7072 0,0 8.025112,-0.7152 9.340996,1.0591 0.45135,0.6083 0.330609,1.7906 -0.229783,2.292 -0.477103,0.4267 -1.887206,-0.088 -1.887206,-0.088 l -6.867878,-0.8597 z"
       id="path3855-7"
       inkscape:connector-curvature="0"
       sodipodi:nodetypes="cssscssccc"
       inkscape:transform-center-x="-5.0063002"
       inkscape:transform-center-y="-0.98965054" />
    <rect
       style="color:#000000;fill:#000000;fill-opacity:1;fill-rule:nonzero;stroke:none;stroke-width:1;marker:none;visibility:visible;display:inline;overflow:visible;enable-background:accumulate"
       id="rect3833"
       width="2.5694458"
       height="24.668703"
       x="648.57532"
       y="744.22473"
       transform="matrix(0.77688013,0.62964853,-0.61054137,0.79198437,0,0)" />
    <g
       id="g3829"
       transform="matrix(0.71491529,0,0,0.74255311,4.8787712,264.88688)">
      <path
         sodipodi:nodetypes="sssss"
         inkscape:connector-curvature="0"
         id="path3763"
         d="m 47.365251,1007.8983 c 1.844166,5.9063 -1.200914,13.3925 -7.35515,14.0334 -5.055335,0.5265 -10.730991,-3.707 -14.033463,-7.3551 -4.152513,-4.5872 1.448847,-12.1893 7.35515,-14.0335 5.906302,-1.84415 12.189298,1.4489 14.033463,7.3552 z"
         style="color:#000000;fill:url(#radialGradient3811);fill-opacity:1;fill-rule:nonzero;stroke:#000000;stroke-width:1;stroke-linecap:butt;stroke-linejoin:miter;stroke-miterlimit:4;stroke-opacity:1;stroke-dashoffset:0;marker:none;visibility:visible;display:inline;overflow:visible;enable-background:accumulate" />
      <path
         id="rect3847-7"
         transform="translate(0,988.36218)"
         d="M 36.65625,11.65625 C 35.776029,11.657213 34.887651,11.781407 34,12 c -0.0097,0.0108 0.703723,0.342672 0.694113,0.353572 -0.279348,0.617579 0.158318,1.120887 0.844246,1.735425 2.286153,1.806907 -0.06772,0.24278 2.450047,1.93863 0.935141,0.9129 1.700489,1.229274 2.785465,1.957474 1.337653,0.729808 2.61472,1.394091 3.66292,1.839643 0.836782,0.355686 -0.0037,0.17028 1.939894,0.700148 0.80008,-0.280082 0.348648,0.124115 0.83989,-0.321518 -0.04399,-0.400986 0.359176,-0.04239 0.158425,-0.672124 -0.624104,-1.957761 -1.74136,-3.613724 -3.15625,-4.90625 -0.676465,-0.01117 -1.348476,-0.03227 -1.8125,-0.34375 -0.461806,-0.309949 -0.734598,-0.943756 -1,-1.5625 -1.466347,-0.683784 -3.091816,-1.064315 -4.75,-1.0625 z"
         style="color:#000000;fill:url(#radialGradient3801);fill-opacity:1;fill-rule:nonzero;stroke:#000000;stroke-width:1;stroke-miterlimit:4;stroke-dasharray:none;marker:none;visibility:visible;display:inline;overflow:visible;enable-background:accumulate"
         inkscape:connector-curvature="0"
         sodipodi:nodetypes="scccccsccscccs" />
    </g>
    <rect
       style="color:#000000;fill:#000000;fill-opacity:1;fill-rule:nonzero;stroke:none;stroke-width:1;marker:none;visibility:visible;display:inline;overflow:visible;enable-background:accumulate"
       id="rect3835"
       width="1.6413052"
       height="5.225853"
       x="646.7019"
       y="747.03046"
       transform="matrix(0.76824357,0.64015766,-0.61128521,0.79141038,0,0)" />
    <rect
       style="color:#000000;fill:#000000;fill-opacity:1;fill-rule:nonzero;stroke:none;stroke-width:1;marker:none;visibility:visible;display:inline;overflow:visible;enable-background:accumulate"
       id="rect3835-7"
       width="1.3302804"
       height="4.2163987"
       x="-777.05634"
       y="655.49182"
       transform="matrix(0.61965802,-0.78487193,0.79378229,0.60820201,0,0)" />
  </g>
  <g
     inkscape:groupmode="layer"
     id="layer2"
     inkscape:label="overlay"
     style="display:none">
    <path
       transform="matrix(0.9117869,0,0,0.9117869,2.1637172,3.3119036)"
       style="color:#000000;fill:#ffffff;fill-opacity:1;fill-rule:nonzero;stroke:none;stroke-width:3;marker:none;visibility:visible;display:inline;overflow:visible;enable-background:accumulate"
       d="m 21.820617,26.1896 c -0.351466,0.483466 -0.921503,0.79778 -1.564954,0.79778 -0.620794,0 -1.173255,-0.292569 -1.527022,-0.747345 -0.220802,-1.009736 0.0946,-2.291516 0.484342,-2.814688 0.30085,-0.193022 0.658695,-0.304958 1.042684,-0.304958 0.825714,0 1.539105,0.526166 1.816279,1.254605 -0.152736,0.569511 -0.220441,1.179638 -0.251329,1.814606 z"
       id="path3084"
       inkscape:connector-curvature="0"
       sodipodi:nodetypes="csccscc" />
    <path
       transform="matrix(1.0228753,0,0,1.0228753,15.460271,9.9848162)"
       style="color:#000000;fill:#ffffff;fill-opacity:1;fill-rule:nonzero;stroke:none;stroke-width:3;marker:none;visibility:visible;display:inline;overflow:visible;enable-background:accumulate"
       d="m 22.185475,26.258175 c 0,0.122974 -0.01288,0.24294 -0.03736,0.358622 -1.027746,0.957071 -1.659826,1.099258 -2.490374,1.166245 -0.546788,-0.288954 -0.91941,-0.863396 -0.91941,-1.524867 0,-0.951903 0.77167,-1.723573 1.723573,-1.723573 0.951903,0 1.723572,0.77167 1.723572,1.723573 z"
       id="path3221"
       inkscape:connector-curvature="0"
       sodipodi:nodetypes="sccsss" />
    <path
       style="fill:#ffffff;stroke:none;display:inline"
       d="m 33.68117,39.219118 -0.788437,-0.540777 c -0.156798,0.164217 -3.598372,5.09634 -4.531203,5.389902 l -2.792753,-0.114155 2.763028,1.525642 c 0.783764,-0.431589 3.871877,-4.29591 5.349365,-6.260612 z"
       id="path3231"
       inkscape:connector-curvature="0"
       sodipodi:nodetypes="cccccc" />
    <path
       style="fill:#ffffff;stroke:none;display:inline"
       d="m 19.514089,30.092238 0.828301,0.477483 c -0.08037,0.212351 -2.710488,5.866637 -2.572294,6.834756 l 1.309338,2.46944 -2.569502,-1.832913 c 0.05068,-0.893301 1.870445,-5.767546 3.004157,-7.948766 z"
       id="path3231-1"
       inkscape:connector-curvature="0"
       sodipodi:nodetypes="cccccc" />
    <path
       style="fill:#ffffff;stroke:none;display:inline"
       d="m 27.037227,47.304762 -3.298428,8.462589 -0.823793,-1.5323 2.408927,-8.010713 z"
       id="path3193-4"
       inkscape:connector-curvature="0" />
    <path
       style="fill:#ffffff;stroke:none;display:inline"
       d="M 15.351444,40.087843 7.7068961,47.47415 9.438793,47.6388 17.012038,41.247641 z"
       id="path3193-4-9"
       inkscape:connector-curvature="0"
       sodipodi:nodetypes="ccccc" />
  </g>
</svg>
