<?xml version="1.0" encoding="UTF-8" standalone="no"?>
<!-- Created with Inkscape (http://www.inkscape.org/) -->

<svg
   xmlns:dc="http://purl.org/dc/elements/1.1/"
   xmlns:cc="http://creativecommons.org/ns#"
   xmlns:rdf="http://www.w3.org/1999/02/22-rdf-syntax-ns#"
   xmlns:svg="http://www.w3.org/2000/svg"
   xmlns="http://www.w3.org/2000/svg"
   xmlns:xlink="http://www.w3.org/1999/xlink"
   xmlns:sodipodi="http://sodipodi.sourceforge.net/DTD/sodipodi-0.dtd"
   xmlns:inkscape="http://www.inkscape.org/namespaces/inkscape"
   width="64"
   height="64"
   id="svg2"
   version="1.1"
   inkscape:version="0.48.4 r9939"
   sodipodi:docname="sniper.svg"
   inkscape:export-filename="/home/jami/Projects/java/valley-of-bones/art/exported/sniper-overlay.png"
   inkscape:export-xdpi="90"
   inkscape:export-ydpi="90">
  <defs
     id="defs4">
    <linearGradient
       id="linearGradient3803">
      <stop
         style="stop-color:#afafaf;stop-opacity:1;"
         offset="0"
         id="stop3805" />
      <stop
         style="stop-color:#6e6e6e;stop-opacity:1;"
         offset="1"
         id="stop3807" />
    </linearGradient>
    <linearGradient
       id="linearGradient3795">
      <stop
         style="stop-color:#646464;stop-opacity:1;"
         offset="0"
         id="stop3797" />
      <stop
         style="stop-color:#323232;stop-opacity:1;"
         offset="1"
         id="stop3799" />
    </linearGradient>
    <radialGradient
       inkscape:collect="always"
       xlink:href="#linearGradient3795"
       id="radialGradient3801"
       cx="40.715647"
       cy="16.090568"
       fx="40.715647"
       fy="16.090568"
       r="7.215745"
       gradientTransform="matrix(1,0,0,0.68382741,0,5.0873965)"
       gradientUnits="userSpaceOnUse" />
    <radialGradient
       inkscape:collect="always"
       xlink:href="#linearGradient3803"
       id="radialGradient3811"
       cx="36.2206"
       cy="1011.0036"
       fx="36.2206"
       fy="1011.0036"
       r="12.178949"
       gradientTransform="matrix(1.5402589,-0.02542089,0.02195253,1.232939,-41.76258,-234.58138)"
       gradientUnits="userSpaceOnUse" />
    <radialGradient
       inkscape:collect="always"
       xlink:href="#linearGradient3803"
       id="radialGradient3819"
       cx="37.043743"
       cy="1019.5591"
       fx="37.043743"
       fy="1019.5591"
       r="5.3862104"
       gradientTransform="matrix(1.8772016,0.04523739,-0.06569353,2.7260635,36.64826,-1761.4394)"
       gradientUnits="userSpaceOnUse" />
    <radialGradient
       inkscape:collect="always"
       xlink:href="#linearGradient3803"
       id="radialGradient3827"
       cx="29.542389"
       cy="1013.4667"
       fx="29.542389"
       fy="1013.4667"
       r="11.092625"
       gradientTransform="matrix(1.5723363,0.01461584,-0.01812089,1.9493958,4.9220971,-962.85927)"
       gradientUnits="userSpaceOnUse" />
    <radialGradient
       inkscape:collect="always"
       xlink:href="#linearGradient3803"
       id="radialGradient3835"
       cx="25.762106"
       cy="1024.375"
       fx="25.762106"
       fy="1024.375"
       r="10.882079"
       gradientTransform="matrix(1.9332455,0.03444869,-0.03485182,1.9558685,14.181883,-980.14831)"
       gradientUnits="userSpaceOnUse" />
    <radialGradient
       inkscape:collect="always"
       xlink:href="#linearGradient3803"
       id="radialGradient3843"
       cx="14.932882"
       cy="1038.1187"
       fx="14.932882"
       fy="1038.1187"
       r="13.837299"
       gradientTransform="matrix(1.5565878,0.0376939,-0.03814729,1.5753108,34.156756,-598.33314)"
       gradientUnits="userSpaceOnUse" />
    <radialGradient
       inkscape:collect="always"
       xlink:href="#linearGradient3803-4"
       id="radialGradient3827-9"
       cx="29.542389"
       cy="1013.4667"
       fx="29.542389"
       fy="1013.4667"
       r="11.092625"
       gradientTransform="matrix(1.6239052,0.0150952,-0.01871522,2.0133314,0.53559535,-1027.4234)"
       gradientUnits="userSpaceOnUse" />
    <linearGradient
       id="linearGradient3803-4">
      <stop
         style="stop-color:#afafaf;stop-opacity:1;"
         offset="0"
         id="stop3805-1" />
      <stop
         style="stop-color:#6e6e6e;stop-opacity:1;"
         offset="1"
         id="stop3807-9" />
    </linearGradient>
  </defs>
  <sodipodi:namedview
     id="base"
     pagecolor="#000000"
     bordercolor="#666666"
     borderopacity="1.0"
     inkscape:pageopacity="0"
     inkscape:pageshadow="2"
     inkscape:zoom="2.8284271"
     inkscape:cx="25.869842"
     inkscape:cy="18.277292"
     inkscape:document-units="px"
     inkscape:current-layer="layer2"
     showgrid="false"
     inkscape:window-width="1920"
     inkscape:window-height="1051"
     inkscape:window-x="0"
     inkscape:window-y="0"
     inkscape:window-maximized="1" />
  <metadata
     id="metadata7">
    <rdf:RDF>
      <cc:Work
         rdf:about="">
        <dc:format>image/svg+xml</dc:format>
        <dc:type
           rdf:resource="http://purl.org/dc/dcmitype/StillImage" />
        <dc:title></dc:title>
      </cc:Work>
    </rdf:RDF>
  </metadata>
  <g
     inkscape:label="guide"
     inkscape:groupmode="layer"
     id="layer1"
     transform="translate(0,-988.36218)"
     style="display:none">
    <path
       style="color:#000000;fill:none;stroke:#000000;stroke-width:0.1;stroke-miterlimit:4;stroke-dasharray:none;marker:none;visibility:visible;display:inline;overflow:visible;enable-background:accumulate"
       d="m 0,1004.3622 32,-16.00002 32,16.00002 0,32 -32,16 -32,-16 z"
       id="rect3750"
       inkscape:connector-curvature="0"
       sodipodi:nodetypes="ccccccc" />
  </g>
  <g
     transform="translate(0,-988.36218)"
     id="g3757"
     inkscape:groupmode="layer"
     inkscape:label="sniper"
     style="display:inline">
    <path
       style="color:#000000;fill:url(#radialGradient3835);fill-opacity:1;fill-rule:nonzero;stroke:#000000;stroke-width:0.7054655;stroke-linecap:butt;stroke-linejoin:miter;stroke-miterlimit:4;stroke-opacity:1;stroke-dashoffset:0;marker:none;visibility:visible;display:inline;overflow:visible;enable-background:accumulate"
       d="m 25.639187,1013.9188 c 4.810426,-1.2324 11.535441,2.9872 12.722422,7.9843 1.164046,4.899 -7.537947,12.9584 -7.537947,12.9584 l -12.722426,-7.9831 c 0,0 2.820485,-11.7499 7.537951,-12.9596 z"
       id="rect3765"
       inkscape:connector-curvature="0"
       sodipodi:nodetypes="ssccs" />
    <path
       style="color:#000000;fill:url(#radialGradient3843);fill-opacity:1;fill-rule:nonzero;stroke:#000000;stroke-width:0.7054655;stroke-linecap:butt;stroke-linejoin:miter;stroke-miterlimit:4;stroke-opacity:1;stroke-dashoffset:0;marker:none;visibility:visible;display:inline;overflow:visible;enable-background:accumulate"
       d="m 18.194191,1026.8605 12.650638,7.9833 -3.605455,9.0646 2.463105,2.6043 -0.184764,1.8048 -9.219576,-4.9995 1.92863,-3.8115 0.0737,-2.9286 -0.124396,-2.135 -2.429395,0.7041 -2.566835,0.9294 -4.337778,3.45 -8.0875156,-4.2408 1.6949814,-0.9043 3.4326158,0.4941 z"
       id="rect3765-8"
       inkscape:connector-curvature="0"
       sodipodi:nodetypes="cccccccccccccccc" />
    <path
       style="fill:url(#radialGradient3819);fill-opacity:1;stroke:#000000;stroke-width:0.7054655px;stroke-linecap:butt;stroke-linejoin:miter;stroke-opacity:1"
       d="m 37.639168,1021.2315 c 0,0 -2.669458,0.4405 -3.130429,1.5401 -0.471541,1.1248 0.141102,2.752 1.070936,3.5081 0.996547,0.8102 2.673404,0.877 3.789467,0.2571 1.447487,-0.8054 3.389776,-3.1775 4.092581,-5.027 0.450534,-1.1862 0.418986,-2.7157 0.418986,-2.7157 0.07226,-0.01 -0.0234,-2.5828 -0.389176,-4.1254 -0.289931,-1.2228 0.695139,-1.1982 0.07898,-1.9085 -0.479527,-0.5519 -1.584741,-0.6384 -2.141878,-0.1705 -0.474376,0.3976 -0.247134,1.882 -0.247134,1.882 l 0.08236,4.0221 z"
       id="path3855"
       inkscape:connector-curvature="0"
       sodipodi:nodetypes="csssscsssccc" />
    <path
       style="fill:url(#radialGradient3827);fill-opacity:1;stroke:#000000;stroke-width:0.7054655px;stroke-linecap:butt;stroke-linejoin:miter;stroke-opacity:1;display:inline"
       d="m 28.099597,1014.9579 c 0,0 -0.896643,2.6485 -2.020815,2.9218 -1.149977,0.2794 -2.580863,-0.6383 -3.130418,-1.7246 -0.588921,-1.1637 -0.350641,-2.8883 0.437312,-3.9174 0.723077,-0.9444 3.484787,-2.3831 6.845189,-2.8848 4.433206,-0.6619 9.613886,-0.2327 9.613886,-0.2327 0,0 2.515872,-1.1913 3.789969,0.526 0.437016,0.5891 -0.186824,1.2886 -0.729418,1.774 -0.461954,0.4125 -2.007846,-0.5618 -2.007846,-0.5618 l -6.247703,0.6437 z"
       id="path3855-7"
       inkscape:connector-curvature="0"
       sodipodi:nodetypes="csssscssccc"
       inkscape:transform-center-x="-4.8473195"
       inkscape:transform-center-y="-0.95841031" />
    <rect
       style="color:#000000;fill:#000000;fill-opacity:1;fill-rule:nonzero;stroke:none;stroke-width:1;marker:none;visibility:visible;display:inline;overflow:visible;enable-background:accumulate"
       id="rect3833"
       width="2.4878502"
       height="23.885321"
       x="650.4364"
       y="743.69421"
       transform="matrix(0.77688013,0.62964853,-0.61054137,0.79198437,0,0)" />
    <g
       id="g3829"
       transform="matrix(0.69221236,0,0,0.71897251,8.0648504,288.91238)">
      <path
         sodipodi:nodetypes="sssss"
         inkscape:connector-curvature="0"
         id="path3763"
         d="m 47.365251,1007.8983 c 1.844166,5.9063 -1.200914,13.3925 -7.35515,14.0334 -5.055335,0.5265 -10.730991,-3.707 -14.033463,-7.3551 -4.152513,-4.5872 1.448847,-12.1893 7.35515,-14.0335 5.906302,-1.84415 12.189298,1.4489 14.033463,7.3552 z"
         style="color:#000000;fill:url(#radialGradient3811);fill-opacity:1;fill-rule:nonzero;stroke:#000000;stroke-width:1;stroke-linecap:butt;stroke-linejoin:miter;stroke-miterlimit:4;stroke-opacity:1;stroke-dashoffset:0;marker:none;visibility:visible;display:inline;overflow:visible;enable-background:accumulate" />
      <path
         id="rect3847-7"
         transform="translate(0,988.36218)"
         d="M 36.65625,11.65625 C 35.776029,11.657213 34.887651,11.781407 34,12 c -0.0097,0.0108 0.703723,0.342672 0.694113,0.353572 -0.279348,0.617579 0.158318,1.120887 0.844246,1.735425 2.286153,1.806907 -0.06772,0.24278 2.450047,1.93863 0.935141,0.9129 1.700489,1.229274 2.785465,1.957474 1.337653,0.729808 2.61472,1.394091 3.66292,1.839643 0.836782,0.355686 -0.0037,0.17028 1.939894,0.700148 0.80008,-0.280082 0.348648,0.124115 0.83989,-0.321518 -0.04399,-0.400986 0.359176,-0.04239 0.158425,-0.672124 -0.624104,-1.957761 -1.74136,-3.613724 -3.15625,-4.90625 -0.676465,-0.01117 -1.348476,-0.03227 -1.8125,-0.34375 -0.461806,-0.309949 -0.734598,-0.943756 -1,-1.5625 -1.466347,-0.683784 -3.091816,-1.064315 -4.75,-1.0625 z"
         style="color:#000000;fill:url(#radialGradient3801);fill-opacity:1;fill-rule:nonzero;stroke:#000000;stroke-width:1;stroke-miterlimit:4;stroke-dasharray:none;marker:none;visibility:visible;display:inline;overflow:visible;enable-background:accumulate"
         inkscape:connector-curvature="0"
         sodipodi:nodetypes="scccccsccscccs" />
    </g>
    <rect
       style="color:#000000;fill:#000000;fill-opacity:1;fill-rule:nonzero;stroke:none;stroke-width:1;marker:none;visibility:visible;display:inline;overflow:visible;enable-background:accumulate"
       id="rect3835-7"
       width="0.73813146"
       height="2.2111344"
       x="-799.28485"
       y="473.40726"
       transform="matrix(0.42104798,-0.90703837,0.79971276,0.60038279,0,0)" />
    <path
       style="fill:#000000;fill-opacity:1;stroke:#000000;stroke-width:0.2842938;stroke-linecap:butt;stroke-linejoin:miter;stroke-miterlimit:4;stroke-opacity:1;stroke-dasharray:none"
       d="m 43.719608,1004.3667 1.859502,1.2955 -0.880278,0.3722 -3.0097,3.7034 -0.09051,0.7215 -1.521566,-1.1572 0.624809,-0.2827 1.349344,-1.6442 -0.156053,-0.1428 0.2964,-0.3814 0.179617,0.1601 1.16346,-1.6912 z"
       id="path3785"
       inkscape:connector-curvature="0"
       sodipodi:nodetypes="ccccccccccccc" />
    <rect
       transform="matrix(0.42104798,-0.90703837,0.79971276,0.60038279,0,0)"
       y="473.75162"
       x="-796.7052"
       height="2.2111344"
       width="0.73813146"
       id="rect3787"
       style="color:#000000;fill:#000000;fill-opacity:1;fill-rule:nonzero;stroke:none;stroke-width:1;marker:none;visibility:visible;display:inline;overflow:visible;enable-background:accumulate" />
    <path
       style="fill:none;stroke:none;stroke-width:0.69999999000000002;stroke-linecap:butt;stroke-linejoin:miter;stroke-miterlimit:4;stroke-opacity:1;stroke-dasharray:none"
       d="m 53.03929,15.95519 -1.508883,-2.424936 -0.493719,2.032932"
       id="path3018"
       inkscape:connector-curvature="0"
       transform="translate(0,988.36218)"
       sodipodi:nodetypes="ccc" />
  </g>
  <g
     inkscape:groupmode="layer"
     id="layer2"
     inkscape:label="overlay"
     style="display:none">
    <path
       style="fill:#ffffff;stroke:none;display:inline"
       d="m 36.124032,38.695069 -0.788437,-0.540777 c -0.156798,0.164217 -3.598372,5.09634 -4.531203,5.389902 l -2.792753,-0.114155 2.763028,1.525642 c 0.783764,-0.431589 3.871877,-4.29591 5.349365,-6.260612 z"
       id="path3231"
       inkscape:connector-curvature="0"
       sodipodi:nodetypes="cccccc" />
    <path
       style="fill:#ffffff;stroke:none;display:inline"
       d="m 22.331951,29.786939 0.828301,0.477483 c -0.08037,0.212351 -2.710488,5.866637 -2.572294,6.834756 l 1.309338,2.46944 -2.569502,-1.832913 c 0.05068,-0.893301 1.870445,-5.767546 3.004157,-7.948766 z"
       id="path3231-1"
       inkscape:connector-curvature="0"
       sodipodi:nodetypes="cccccc" />
    <path
       style="fill:#ffffff;stroke:none;display:inline"
       d="m 29.605089,46.749463 -3.298428,8.462589 -0.823793,-1.5323 2.408927,-8.010713 z"
       id="path3193-4"
       inkscape:connector-curvature="0" />
    <path
       style="fill:#ffffff;stroke:none;display:inline"
       d="m 18.481806,39.595044 -7.644548,7.386307 1.731897,0.16465 7.573245,-6.391159 z"
       id="path3193-4-9"
       inkscape:connector-curvature="0"
       sodipodi:nodetypes="ccccc" />
    <path
       style="fill:#ffffff;fill-opacity:1;stroke:#000000;stroke-width:0;stroke-linecap:butt;stroke-linejoin:miter;stroke-miterlimit:4;stroke-opacity:1;stroke-dasharray:none"
       d="m 43.340879,31.748048 -1.305256,2.792571 -0.8826,1.121006 -2.772661,2.126826 -2.90625,-1.75 3.28125,0.15625 1.747871,-1.15871 0.895886,-1.129315 1.335716,-2.183866 z"
       id="path3791"
       inkscape:connector-curvature="0"
       sodipodi:nodetypes="cccccccccc" />
    <path
       sodipodi:nodetypes="ccccccccccc"
       inkscape:connector-curvature="0"
       id="path3795"
       d="m 26.795984,22.487324 -2.056809,1.355206 -0.896796,0.986766 -0.69333,1.953793 1.560873,0.978335 0.0034,-0.847002 -0.376764,-0.693833 0.18754,-0.98145 0.864034,-0.940112 0.934449,-1.207959 z"
       style="fill:#ffffff;fill-opacity:1;stroke:#000000;stroke-width:0;stroke-linecap:butt;stroke-linejoin:miter;stroke-miterlimit:4;stroke-opacity:1;stroke-dasharray:none" />
  </g>
</svg>
