<?xml version="1.0" encoding="UTF-8" standalone="no"?>
<!-- Created with Inkscape (http://www.inkscape.org/) -->

<svg
   xmlns:dc="http://purl.org/dc/elements/1.1/"
   xmlns:cc="http://creativecommons.org/ns#"
   xmlns:rdf="http://www.w3.org/1999/02/22-rdf-syntax-ns#"
   xmlns:svg="http://www.w3.org/2000/svg"
   xmlns="http://www.w3.org/2000/svg"
   xmlns:sodipodi="http://sodipodi.sourceforge.net/DTD/sodipodi-0.dtd"
   xmlns:inkscape="http://www.inkscape.org/namespaces/inkscape"
   width="77.0625"
   height="38.78125"
   id="svg3775"
   version="1.1"
   inkscape:version="0.48.4 r9939"
   sodipodi:docname="New document 20">
  <defs
     id="defs3777" />
  <sodipodi:namedview
     id="base"
     pagecolor="#ffffff"
     bordercolor="#666666"
     borderopacity="1.0"
     inkscape:pageopacity="0.0"
     inkscape:pageshadow="2"
     inkscape:zoom="0.35"
     inkscape:cx="-75.03296"
     inkscape:cy="161.85622"
     inkscape:document-units="px"
     inkscape:current-layer="layer1"
     showgrid="false"
     fit-margin-top="0"
     fit-margin-left="0"
     fit-margin-right="0"
     fit-margin-bottom="0"
     inkscape:window-width="473"
     inkscape:window-height="402"
     inkscape:window-x="0"
     inkscape:window-y="29"
     inkscape:window-maximized="0" />
  <metadata
     id="metadata3780">
    <rdf:RDF>
      <cc:Work
         rdf:about="">
        <dc:format>image/svg+xml</dc:format>
        <dc:type
           rdf:resource="http://purl.org/dc/dcmitype/StillImage" />
        <dc:title></dc:title>
      </cc:Work>
    </rdf:RDF>
  </metadata>
  <g
     inkscape:label="Layer 1"
     inkscape:groupmode="layer"
     id="layer1"
     transform="translate(-450.03296,-655.43715)">
    <g
       id="g4180"
       transform="translate(468.65796,-207.06285)"
       inkscape:export-filename="/home/jami/Projects/java/valley-of-bones/art/exported/build-infantry-tab.png"
       inkscape:export-xdpi="90"
       inkscape:export-ydpi="90">
      <path
         style="color:#000000;fill:#333333;fill-opacity:1;fill-rule:nonzero;stroke:#808080;stroke-width:3;stroke-miterlimit:4;stroke-dasharray:none;marker:none;visibility:visible;display:inline;overflow:visible;enable-background:accumulate"
         d="m 57.12796,900.56789 -20,-36.57143 -34.4289762,0 -19.9999998,36.57143"
         id="rect3755-5-8"
         inkscape:connector-curvature="0"
         sodipodi:nodetypes="cccc"
         inkscape:export-filename="/home/jami/Projects/java/valley-of-bones/art/exported/turn-hud-bg.png"
         inkscape:export-xdpi="90"
         inkscape:export-ydpi="90" />
      <g
         transform="matrix(0.0625,0,0,0.0625,3.913472,866.23756)"
         id="g3007">
        <path
           d="M 0,0 H 512 V 512 H 0 z"
           id="path4-6"
           inkscape:connector-curvature="0" />
        <g
           transform="matrix(18.68858,0,0,18.68858,-2953.4486,-24503.541)"
           id="g6">
          <path
             d="m 592.2903,496.8414 c 0,2.2943 -1.3653,4.1543 -3.0494,4.1543 -1.6841,0 -3.0494,-1.8599 -3.0494,-4.1543 0,-2.2944 1.3653,-4.1543 3.0494,-4.1543 1.6841,0 3.0494,1.8599 3.0494,4.1543 z"
             transform="matrix(-0.86381,-0.00188,0.00188,0.86381,680.64118,891.32391)"
             id="path8"
             inkscape:connector-curvature="0"
             style="fill:#ffffff" />
          <path
             d="m 162.3886,1312.2917 3.6834,5.5649 -1.4574,2.6798 -2.6122,-1.5976 0.3863,-6.6471 z"
             id="path10"
             inkscape:connector-curvature="0"
             style="fill:#ffffff" />
          <path
             d="m 164.174,1319.0461 5.1506,19.0772"
             id="path12"
             inkscape:connector-curvature="0"
             style="fill:none;stroke:#ffffff" />
          <path
             d="m 145.9149,1328.0809 c 0,2.9519 -2.393,5.3449 -5.3449,5.3449 -2.9519,0 -5.3449,-2.393 -5.3449,-5.3449 0,-2.9519 2.393,-5.3448 5.3449,-5.3448 2.9519,0 5.3449,2.3929 5.3449,5.3448 z"
             transform="matrix(1.25759,0,0,1.25759,0.13662,-339.98081)"
             id="path14"
             inkscape:connector-curvature="0"
             style="stroke:#ffffff;stroke-width:0.79519999" />
          <path
             d="m 145.9149,1328.0809 c 0,2.9519 -2.393,5.3449 -5.3449,5.3449 -2.9519,0 -5.3449,-2.393 -5.3449,-5.3449 0,-2.9519 2.393,-5.3448 5.3449,-5.3448 2.9519,0 5.3449,2.3929 5.3449,5.3448 z"
             transform="matrix(0.95908,0,0,0.95908,42.02459,56.46723)"
             id="path16"
             inkscape:connector-curvature="0"
             style="fill:#ffffff" />
          <path
             d="m 172.5647,1317.4179 1.6107,-4.87 -1.6107,-0.1671 -1.6107,0.1671 1.6107,4.87 z"
             id="path18"
             inkscape:connector-curvature="0"
             style="fill:#ffffff" />
          <path
             d="m 172.5247,1323.2325 v -4.3141"
             id="path20"
             inkscape:connector-curvature="0"
             style="fill:none;stroke:#000000" />
          <path
             d="m 169.8331,1318.5867 2.6151,0.6748 3.1116,-0.6749"
             id="path22"
             inkscape:connector-curvature="0"
             style="fill:none;stroke:#000000" />
          <path
             d="m 163.9142,1318.0872 2.2076,3.9598 -2.1288,0.5648 -0.0788,-4.5246 z"
             id="path24"
             inkscape:connector-curvature="0"
             style="fill:#ffffff" />
        </g>
      </g>
    </g>
  </g>
</svg>
