<?xml version="1.0" encoding="UTF-8" standalone="no"?>
<svg
   xmlns:dc="http://purl.org/dc/elements/1.1/"
   xmlns:cc="http://creativecommons.org/ns#"
   xmlns:rdf="http://www.w3.org/1999/02/22-rdf-syntax-ns#"
   xmlns:svg="http://www.w3.org/2000/svg"
   xmlns="http://www.w3.org/2000/svg"
   xmlns:sodipodi="http://sodipodi.sourceforge.net/DTD/sodipodi-0.dtd"
   xmlns:inkscape="http://www.inkscape.org/namespaces/inkscape"
   viewBox="0 0 512 512"
   id="svg2"
   version="1.1"
   inkscape:version="0.48.2 r9819"
   width="100%"
   height="100%"
   sodipodi:docname="archery-target.svg">
  <metadata
     id="metadata24">
    <rdf:RDF>
      <cc:Work
         rdf:about="">
        <dc:format>image/svg+xml</dc:format>
        <dc:type
           rdf:resource="http://purl.org/dc/dcmitype/StillImage" />
      </cc:Work>
    </rdf:RDF>
  </metadata>
  <defs
     id="defs22" />
  <sodipodi:namedview
     pagecolor="#ffffff"
     bordercolor="#666666"
     borderopacity="1"
     objecttolerance="10"
     gridtolerance="10"
     guidetolerance="10"
     inkscape:pageopacity="0"
     inkscape:pageshadow="2"
     inkscape:window-width="2560"
     inkscape:window-height="1359"
     id="namedview20"
     showgrid="false"
     inkscape:zoom="0.92365555"
     inkscape:cx="257.16733"
     inkscape:cy="300.74621"
     inkscape:window-x="0"
     inkscape:window-y="22"
     inkscape:window-maximized="0"
     inkscape:current-layer="svg2" />
  <path
     sodipodi:type="star"
     style="fill:#000000;fill-opacity:1;stroke:none"
     id="path3771"
     sodipodi:sides="6"
     sodipodi:cx="68.134171"
     sodipodi:cy="37.740242"
     sodipodi:r1="153.21429"
     sodipodi:r2="132.68747"
     sodipodi:arg1="0.52359878"
     sodipodi:arg2="1.0471976"
     inkscape:flatsided="true"
     inkscape:rounded="0"
     inkscape:randomized="0"
     d="M 200.82164,114.34739 68.13417,190.95454 -64.553301,114.34739 -64.5533,-38.866906 68.134171,-115.47405 200.82164,-38.866905 z"
     transform="matrix(1.9293457,0,0,1.6708624,124.54563,192.94125)" />
  <g
     transform="matrix(16.349761,0,0,16.349761,5097.8614,-6972.9585)"
     id="g6">
    <path
       d="m -297.4693,427.8821 -7.4381,24.8095 h 2.5088 l 4.9828,-15.2969 v 15.2969 h 2.7876 v -15.0878 l 4.948,15.0878 h 2.5088 l -7.5264,-24.8095 h -2.7715 z"
       id="path8"
       inkscape:connector-curvature="0"
       style="fill:#ffffff" />
    <path
       d="m 455.9557,438.5445 c 0,4.6014 -3.7301,8.3315 -8.3315,8.3315 -4.6014,0 -8.3315,-3.7301 -8.3315,-8.3315 0,-4.6014 3.7301,-8.3315 8.3315,-8.3315 4.6014,0 8.3315,3.7301 8.3315,8.3315 z"
       transform="matrix(1.22216,0,0,1.22216,-842.91181,-95.83564)"
       id="path10"
       inkscape:connector-curvature="0"
       style="fill:#ffffff;stroke:#000000;stroke-width:0.88669997" />
    <path
       d="m 455.9557,438.5445 c 0,4.6014 -3.7301,8.3315 -8.3315,8.3315 -4.6014,0 -8.3315,-3.7301 -8.3315,-8.3315 0,-4.6014 3.7301,-8.3315 8.3315,-8.3315 4.6014,0 8.3315,3.7301 8.3315,8.3315 z"
       transform="matrix(0.88941,0,0,0.88941,-693.9642,50.0907)"
       id="path12"
       inkscape:connector-curvature="0" />
    <path
       d="m 455.9557,438.5445 c 0,4.6014 -3.7301,8.3315 -8.3315,8.3315 -4.6014,0 -8.3315,-3.7301 -8.3315,-8.3315 0,-4.6014 3.7301,-8.3315 8.3315,-8.3315 4.6014,0 8.3315,3.7301 8.3315,8.3315 z"
       transform="matrix(0.63912,0,0,0.63912,-581.93065,159.85176)"
       id="path14"
       inkscape:connector-curvature="0"
       style="fill:#ffffff" />
    <path
       d="m 455.9557,438.5445 c 0,4.6014 -3.7301,8.3315 -8.3315,8.3315 -4.6014,0 -8.3315,-3.7301 -8.3315,-8.3315 0,-4.6014 3.7301,-8.3315 8.3315,-8.3315 4.6014,0 8.3315,3.7301 8.3315,8.3315 z"
       transform="matrix(0.38437,0,0,0.38437,-467.89643,271.57288)"
       id="path16"
       inkscape:connector-curvature="0" />
    <path
       d="m 455.9557,438.5445 c 0,4.6014 -3.7301,8.3315 -8.3315,8.3315 -4.6014,0 -8.3315,-3.7301 -8.3315,-8.3315 0,-4.6014 3.7301,-8.3315 8.3315,-8.3315 4.6014,0 8.3315,3.7301 8.3315,8.3315 z"
       transform="matrix(0.18597,0,0,0.18597,-379.08777,358.58014)"
       id="path18"
       inkscape:connector-curvature="0"
       style="fill:#ffffff" />
  </g>
</svg>
