<?xml version="1.0" encoding="UTF-8" standalone="no"?>
<svg
   xmlns:dc="http://purl.org/dc/elements/1.1/"
   xmlns:cc="http://creativecommons.org/ns#"
   xmlns:rdf="http://www.w3.org/1999/02/22-rdf-syntax-ns#"
   xmlns:svg="http://www.w3.org/2000/svg"
   xmlns="http://www.w3.org/2000/svg"
   xmlns:sodipodi="http://sodipodi.sourceforge.net/DTD/sodipodi-0.dtd"
   xmlns:inkscape="http://www.inkscape.org/namespaces/inkscape"
   viewBox="0 0 512 512"
   id="svg2"
   version="1.1"
   inkscape:version="0.48.2 r9819"
   width="100%"
   height="100%"
   sodipodi:docname="armored.svg">
  <metadata
     id="metadata34">
    <rdf:RDF>
      <cc:Work
         rdf:about="">
        <dc:format>image/svg+xml</dc:format>
        <dc:type
           rdf:resource="http://purl.org/dc/dcmitype/StillImage" />
      </cc:Work>
    </rdf:RDF>
  </metadata>
  <defs
     id="defs32" />
  <sodipodi:namedview
     pagecolor="#ffffff"
     bordercolor="#666666"
     borderopacity="1"
     objecttolerance="10"
     gridtolerance="10"
     guidetolerance="10"
     inkscape:pageopacity="0"
     inkscape:pageshadow="2"
     inkscape:window-width="870"
     inkscape:window-height="884"
     id="namedview30"
     showgrid="false"
     inkscape:zoom="0.76"
     inkscape:cx="282.78861"
     inkscape:cy="411.56349"
     inkscape:window-x="75"
     inkscape:window-y="22"
     inkscape:window-maximized="0"
     inkscape:current-layer="svg2" />
  <path
     sodipodi:type="star"
     style="fill:#000000;fill-opacity:1;stroke:none"
     id="path3011"
     sodipodi:sides="6"
     sodipodi:cx="607.45764"
     sodipodi:cy="-99.796608"
     sodipodi:r1="464.88412"
     sodipodi:r2="402.60147"
     sodipodi:arg1="1.5707963"
     sodipodi:arg2="2.0943951"
     inkscape:flatsided="true"
     inkscape:rounded="0"
     inkscape:randomized="0"
     d="m 607.45765,365.08752 -402.60146,-232.44205 -2e-5,-464.88413 402.60146,-232.44207 402.60147,232.44205 0,464.88412 z"
     transform="matrix(0.63586455,0,0,0.55067486,-130.26077,310.95548)" />
  <g
     transform="matrix(16.424484,0,0,14.498253,-10350.843,-31077.921)"
     id="g6">
    <path
       d="m 65.1229,2249.0833 h 12.6792 v 2.4887 H 65.1229 z"
       transform="matrix(0.96593,-0.25882,0.25882,0.96593,0,0)"
       id="path8"
       inkscape:connector-curvature="0"
       style="fill:#ffffff;stroke:#000000" />
    <path
       d="m 634.1573,2161.5659 4.1932,-1.9822 h 8.3863 c 3.4294,0.143 9.801,1.8623 9.801,4.6125 l -1.0335,-0.3431 h -20.3727 l -0.9742,0.4043 z"
       id="path10"
       inkscape:connector-curvature="0"
       style="fill:#ffffff" />
    <path
       d="m 639.5252,2168.418 c 0,1.6226 -1.3154,2.938 -2.9381,2.938 -1.6227,0 -2.9381,-1.3154 -2.9381,-2.938 0,-1.6226 1.3154,-2.9381 2.9381,-2.9381 1.6227,0 2.9381,1.3154 2.9381,2.9381 z"
       transform="matrix(1.03658,0,0,1.03658,-23.50145,-79.37161)"
       id="path12"
       inkscape:connector-curvature="0"
       style="stroke:#ffffff;stroke-width:0.96469998" />
    <path
       d="m 639.5252,2168.418 c 0,1.6226 -1.3154,2.938 -2.9381,2.938 -1.6227,0 -2.9381,-1.3154 -2.9381,-2.938 0,-1.6226 1.3154,-2.9381 2.9381,-2.9381 1.6227,0 2.9381,1.3154 2.9381,2.9381 z"
       transform="matrix(1.03658,0,0,1.03658,-17.39404,-79.37161)"
       id="path14"
       inkscape:connector-curvature="0"
       style="stroke:#ffffff;stroke-width:0.96469998" />
    <path
       d="m 639.5252,2168.418 c 0,1.6226 -1.3154,2.938 -2.9381,2.938 -1.6227,0 -2.9381,-1.3154 -2.9381,-2.938 0,-1.6226 1.3154,-2.9381 2.9381,-2.9381 1.6227,0 2.9381,1.3154 2.9381,2.9381 z"
       transform="matrix(1.03658,0,0,1.03658,-11.24033,-79.37161)"
       id="path16"
       inkscape:connector-curvature="0"
       style="stroke:#ffffff;stroke-width:0.96469998" />
    <path
       d="m 639.5252,2168.418 c 0,1.6226 -1.3154,2.938 -2.9381,2.938 -1.6227,0 -2.9381,-1.3154 -2.9381,-2.938 0,-1.6226 1.3154,-2.9381 2.9381,-2.9381 1.6227,0 2.9381,1.3154 2.9381,2.9381 z"
       transform="matrix(1.03658,0,0,1.03658,-5.14929,-79.37161)"
       id="path18"
       inkscape:connector-curvature="0"
       style="stroke:#ffffff;stroke-width:0.96469998" />
    <path
       d="m 638.9036,2153.7238 c -1.6828,1.2384 -2.7659,3.2453 -2.7659,5.495 h 13.6081 c 0,-2.2497 -1.083,-4.2566 -2.7659,-5.495 h -8.0764 z"
       id="path20"
       inkscape:connector-curvature="0"
       style="fill:#ffffff;stroke:#000000" />
    <path
       d="m 636.308,2165.321 h 18.3718"
       id="path22"
       inkscape:connector-curvature="0"
       style="fill:none;stroke:#ffffff" />
    <path
       d="m 636.308,2171.4062 h 18.3718"
       id="path24"
       inkscape:connector-curvature="0"
       style="fill:none;stroke:#ffffff" />
    <path
       d="m 2247.9482,-78.3481 h 4.4117 v 3.3004 h -4.4117 z"
       transform="matrix(0.25881905,0.96592583,-0.96592583,0.25881905,0,0)"
       id="path26"
       inkscape:connector-curvature="0"
       style="fill:#ffffff;stroke:#000000" />
    <path
       d="m 639.3365,2155.5067 v -4.6631"
       id="path28"
       inkscape:connector-curvature="0"
       style="fill:none;stroke:#ffffff" />
  </g>
</svg>
