<?xml version="1.0" encoding="UTF-8" standalone="no"?>
<svg
   xmlns:dc="http://purl.org/dc/elements/1.1/"
   xmlns:cc="http://creativecommons.org/ns#"
   xmlns:rdf="http://www.w3.org/1999/02/22-rdf-syntax-ns#"
   xmlns:svg="http://www.w3.org/2000/svg"
   xmlns="http://www.w3.org/2000/svg"
   xmlns:sodipodi="http://sodipodi.sourceforge.net/DTD/sodipodi-0.dtd"
   xmlns:inkscape="http://www.inkscape.org/namespaces/inkscape"
   viewBox="0 0 512 512"
   id="svg2"
   version="1.1"
   inkscape:version="0.48.2 r9819"
   width="100%"
   height="100%"
   sodipodi:docname="crossed-swords.svg">
  <metadata
     id="metadata36">
    <rdf:RDF>
      <cc:Work
         rdf:about="">
        <dc:format>image/svg+xml</dc:format>
        <dc:type
           rdf:resource="http://purl.org/dc/dcmitype/StillImage" />
      </cc:Work>
    </rdf:RDF>
  </metadata>
  <defs
     id="defs34" />
  <sodipodi:namedview
     pagecolor="#ffffff"
     bordercolor="#666666"
     borderopacity="1"
     objecttolerance="10"
     gridtolerance="10"
     guidetolerance="10"
     inkscape:pageopacity="0"
     inkscape:pageshadow="2"
     inkscape:window-width="679"
     inkscape:window-height="1370"
     id="namedview32"
     showgrid="false"
     inkscape:zoom="0.56748063"
     inkscape:cx="133.10831"
     inkscape:cy="256"
     inkscape:window-x="1462"
     inkscape:window-y="22"
     inkscape:window-maximized="0"
     inkscape:current-layer="svg2" />
  <path
     sodipodi:type="star"
     style="fill:#000000;fill-opacity:1;stroke:none"
     id="path3013"
     sodipodi:sides="6"
     sodipodi:cx="75.932205"
     sodipodi:cy="80.271187"
     sodipodi:r1="310.69208"
     sodipodi:r2="269.06726"
     sodipodi:arg1="0.52359878"
     sodipodi:arg2="1.0471976"
     inkscape:flatsided="true"
     inkscape:rounded="0"
     inkscape:randomized="0"
     d="M 344.99944,235.61723 75.932204,390.96326 -193.13503,235.61722 l 0,-310.692073 L 75.932207,-230.42089 344.99944,-75.074851 z"
     transform="matrix(0.95143506,0,0,0.82396694,183.75544,189.8592)" />
  <g
     transform="matrix(13.150856,0,0,13.150856,3705.3326,-6413.208)"
     id="g6">
    <g
       transform="matrix(0.92829,0.92829,0.92829,-0.92829,-1175.7784,529.77929)"
       id="g8">
      <path
         d="m 477.8817,498.1319 c 0,6.8988 0.0652,13.1242 1.9305,19.6863 1.9437,-6.3312 1.7374,-12.7162 1.7374,-19.518"
         id="path10"
         inkscape:connector-curvature="0"
         style="fill:#ffffff;fill-rule:evenodd" />
      <path
         d="m 479.7188,510.0878 -10e-6,-12.6103"
         id="path12"
         inkscape:connector-curvature="0"
         style="fill:#ffffff;fill-rule:evenodd;stroke:#000000;stroke-width:0.76169997" />
      <path
         d="m 474.9984,497.5732 h 9.4408 v 1.6439 c -3.1061,-0.8312 -6.3458,-1.0083 -9.4408,0 v -1.6439 z"
         id="path14"
         inkscape:connector-curvature="0"
         style="fill:#ffffff" />
      <path
         d="m 478.91,491.5236 h 1.6175 c -0.4295,2.0932 -0.478,4.1865 0,6.2797 H 478.91 c 0.5704,-2.0932 0.4481,-4.1865 0,-6.2797 z"
         id="path16"
         inkscape:connector-curvature="0"
         style="fill:#ffffff" />
    </g>
    <g
       transform="matrix(-0.92829,0.92829,-0.92829,-0.92829,651.15308,529.77929)"
       id="g18">
      <path
         d="m 477.8817,498.1319 c 0,6.8988 0.0652,13.1242 1.9305,19.6863 1.9437,-6.3312 1.7374,-12.7162 1.7374,-19.518"
         id="path20"
         inkscape:connector-curvature="0"
         style="fill:#ffffff;fill-rule:evenodd" />
      <path
         d="m 479.7188,510.0878 -10e-6,-12.6103"
         id="path22"
         inkscape:connector-curvature="0"
         style="fill:#ffffff;fill-rule:evenodd;stroke:#000000;stroke-width:0.76169997" />
      <path
         d="m 474.9984,497.5732 h 9.4408 v 1.6439 c -3.1061,-0.8312 -6.3458,-1.0083 -9.4408,0 v -1.6439 z"
         id="path24"
         inkscape:connector-curvature="0"
         style="fill:#ffffff" />
      <path
         d="m 478.91,491.5236 h 1.6175 c -0.4295,2.0932 -0.478,4.1865 0,6.2797 H 478.91 c 0.5704,-2.0932 0.4481,-4.1865 0,-6.2797 z"
         id="path26"
         inkscape:connector-curvature="0"
         style="fill:#ffffff" />
    </g>
    <path
       d="m -266.6386,506.6121 4.7031,4.8594"
       id="path28"
       inkscape:connector-curvature="0"
       style="fill:none;stroke:#000000" />
    <path
       d="m -262.6855,502.7528 4.9844,4.7031"
       id="path30"
       inkscape:connector-curvature="0"
       style="fill:none;stroke:#000000" />
  </g>
</svg>
