<?xml version="1.0" encoding="UTF-8" standalone="no"?>
<svg
   xmlns:dc="http://purl.org/dc/elements/1.1/"
   xmlns:cc="http://creativecommons.org/ns#"
   xmlns:rdf="http://www.w3.org/1999/02/22-rdf-syntax-ns#"
   xmlns:svg="http://www.w3.org/2000/svg"
   xmlns="http://www.w3.org/2000/svg"
   xmlns:sodipodi="http://sodipodi.sourceforge.net/DTD/sodipodi-0.dtd"
   xmlns:inkscape="http://www.inkscape.org/namespaces/inkscape"
   viewBox="0 0 512 512"
   id="svg2"
   version="1.1"
   inkscape:version="0.48.2 r9819"
   width="100%"
   height="100%"
   sodipodi:docname="hazard-sign.svg"
   inkscape:export-filename="/home/jami/workspace/valley-of-bones/art/exported/hazard-sign.png"
   inkscape:export-xdpi="11.25"
   inkscape:export-ydpi="11.25">
  <metadata
     id="metadata20">
    <rdf:RDF>
      <cc:Work
         rdf:about="">
        <dc:format>image/svg+xml</dc:format>
        <dc:type
           rdf:resource="http://purl.org/dc/dcmitype/StillImage" />
        <dc:title />
      </cc:Work>
    </rdf:RDF>
  </metadata>
  <defs
     id="defs18" />
  <sodipodi:namedview
     pagecolor="#ffffff"
     bordercolor="#666666"
     borderopacity="1"
     objecttolerance="10"
     gridtolerance="10"
     guidetolerance="10"
     inkscape:pageopacity="0"
     inkscape:pageshadow="2"
     inkscape:window-width="2560"
     inkscape:window-height="1359"
     id="namedview16"
     showgrid="false"
     inkscape:zoom="0.16296602"
     inkscape:cx="256"
     inkscape:cy="256"
     inkscape:window-x="0"
     inkscape:window-y="22"
     inkscape:window-maximized="0"
     inkscape:current-layer="svg2" />
  <path
     sodipodi:type="star"
     style="fill:#000000;fill-opacity:1;stroke:none"
     id="path2987"
     sodipodi:sides="6"
     sodipodi:cx="533.69495"
     sodipodi:cy="-62.915253"
     sodipodi:r1="261.43048"
     sodipodi:r2="226.40544"
     sodipodi:arg1="1.5707963"
     sodipodi:arg2="2.0943951"
     inkscape:flatsided="true"
     inkscape:rounded="0"
     inkscape:randomized="0"
     d="M 533.69495,198.51523 307.28951,67.799994 l -1e-5,-261.430484 226.40544,-130.71524 226.40544,130.71523 10e-6,261.430482 z"
     transform="matrix(1.1307149,0,0,0.97922782,-347.45681,317.60836)" />
  <g
     transform="matrix(16.744081,0,0,16.744081,-794.9603,-39634.12)"
     id="g6">
    <path
       d="m 66.5555,2372.2937 c -2.1434,-4.1396 -5.5804,-4.1586 -7.6768,-0.042 l -7.0939,12.32 c -2.5089,3.9281 -0.8071,6.9179 3.8009,6.678 h 14.185 c 4.608,0.2399 6.3098,-2.7499 3.8009,-6.678 z"
       id="path8"
       inkscape:connector-curvature="0"
       style="fill:#ffffff;stroke:#ffffff" />
    <path
       d="m 59.9463,2372.8621 1.5439,12.133 h 2.2386 l 1.5439,-12.133 c -1.8677,-4.0576 -3.6141,-2.7803 -5.3263,0 z"
       id="path10"
       inkscape:connector-curvature="0" />
    <path
       d="m 61.4351,2386.1812 h 2.3487 v 2.3487 h -2.3487 z"
       id="path12"
       inkscape:connector-curvature="0" />
    <path
       d="m 66.098,2373.5021 c -2.2747,-4.3911 -4.5268,-4.4416 -6.771,-0.037 l -6.2568,10.861 c -2.542,3.978 -1.8712,6.2004 3.3524,5.9287 h 12.5112 c 4.8139,0.2504 6.0729,-1.6714 3.3524,-5.9287 z"
       id="path14"
       inkscape:connector-curvature="0"
       style="fill:none;stroke:#000000" />
  </g>
</svg>
