<?xml version="1.0" encoding="UTF-8" standalone="no"?>
<svg
   xmlns:dc="http://purl.org/dc/elements/1.1/"
   xmlns:cc="http://creativecommons.org/ns#"
   xmlns:rdf="http://www.w3.org/1999/02/22-rdf-syntax-ns#"
   xmlns:svg="http://www.w3.org/2000/svg"
   xmlns="http://www.w3.org/2000/svg"
   xmlns:sodipodi="http://sodipodi.sourceforge.net/DTD/sodipodi-0.dtd"
   xmlns:inkscape="http://www.inkscape.org/namespaces/inkscape"
   viewBox="0 0 512 512"
   id="svg2"
   version="1.1"
   inkscape:version="0.48.2 r9819"
   width="100%"
   height="100%"
   sodipodi:docname="king.svg">
  <metadata
     id="metadata16">
    <rdf:RDF>
      <cc:Work
         rdf:about="">
        <dc:format>image/svg+xml</dc:format>
        <dc:type
           rdf:resource="http://purl.org/dc/dcmitype/StillImage" />
      </cc:Work>
    </rdf:RDF>
  </metadata>
  <defs
     id="defs14" />
  <sodipodi:namedview
     pagecolor="#ffffff"
     bordercolor="#666666"
     borderopacity="1"
     objecttolerance="10"
     gridtolerance="10"
     guidetolerance="10"
     inkscape:pageopacity="0"
     inkscape:pageshadow="2"
     inkscape:window-width="2560"
     inkscape:window-height="1359"
     id="namedview12"
     showgrid="false"
     inkscape:zoom="0.65186406"
     inkscape:cx="256"
     inkscape:cy="256"
     inkscape:window-x="0"
     inkscape:window-y="22"
     inkscape:window-maximized="0"
     inkscape:current-layer="svg2" />
  <path
     sodipodi:type="star"
     style="fill:#000000;fill-opacity:1;stroke:none"
     id="path2993"
     sodipodi:sides="6"
     sodipodi:cx="45.559322"
     sodipodi:cy="30.372881"
     sodipodi:r1="440.49228"
     sodipodi:r2="381.47748"
     sodipodi:arg1="0.52359878"
     sodipodi:arg2="1.0471976"
     inkscape:flatsided="true"
     inkscape:rounded="0"
     inkscape:randomized="0"
     d="m 427.03683,250.61902 -381.47751,220.24614 -381.4775,-220.24614 0,-440.49228 381.477504,-220.24614 381.477506,220.24614 z"
     transform="matrix(0.67107496,0,0,0.58116796,225.42628,238.34825)" />
  <g
     transform="matrix(15.096163,0,0,15.096163,-5085.117,-1083.6852)"
     id="g6">
    <path
       d="m 353.9135,75.0612 -1.2351,3.3194 -1.6597,-3.0878 -0.6176,3.165 -2.3544,-2.972 0.3474,4.2772 c 1.4588,1.4588 9.5587,1.4802 11.0389,0 l 0.3088,-4.2772 -2.3544,2.972 -0.6176,-3.165 -1.6597,3.0492 -1.1965,-3.2808 z"
       id="path8"
       inkscape:connector-curvature="0"
       style="fill:#ffffff" />
    <path
       d="m 353.939,81.4534 c -2.3496,0 -4.2565,2.4373 -4.2565,5.4405 0,1.5978 0.5598,3.0271 1.4188,4.0227 -4.553,1.0374 -4.8504,4.6774 -4.8504,9.9908 h 15.4421 c 0,-5.2937 0.0648,-9.1348 -4.8174,-10.0897 0.8055,-0.9901 1.3198,-2.3837 1.3198,-3.9238 0,-3.0032 -1.9069,-5.4405 -4.2565,-5.4405 z"
       id="path10"
       inkscape:connector-curvature="0"
       style="fill:#ffffff;fill-rule:evenodd;stroke:#000000" />
  </g>
</svg>
