<?xml version="1.0" encoding="UTF-8" standalone="no"?>
<svg
   xmlns:dc="http://purl.org/dc/elements/1.1/"
   xmlns:cc="http://creativecommons.org/ns#"
   xmlns:rdf="http://www.w3.org/1999/02/22-rdf-syntax-ns#"
   xmlns:svg="http://www.w3.org/2000/svg"
   xmlns="http://www.w3.org/2000/svg"
   xmlns:sodipodi="http://sodipodi.sourceforge.net/DTD/sodipodi-0.dtd"
   xmlns:inkscape="http://www.inkscape.org/namespaces/inkscape"
   viewBox="0 0 512 512"
   id="svg2"
   version="1.1"
   inkscape:version="0.48.2 r9819"
   width="100%"
   height="100%"
   sodipodi:docname="light.svg">
  <metadata
     id="metadata30">
    <rdf:RDF>
      <cc:Work
         rdf:about="">
        <dc:format>image/svg+xml</dc:format>
        <dc:type
           rdf:resource="http://purl.org/dc/dcmitype/StillImage" />
      </cc:Work>
    </rdf:RDF>
  </metadata>
  <defs
     id="defs28" />
  <sodipodi:namedview
     pagecolor="#ffffff"
     bordercolor="#666666"
     borderopacity="1"
     objecttolerance="10"
     gridtolerance="10"
     guidetolerance="10"
     inkscape:pageopacity="0"
     inkscape:pageshadow="2"
     inkscape:window-width="2560"
     inkscape:window-height="1359"
     id="namedview26"
     showgrid="false"
     inkscape:zoom="0.32593203"
     inkscape:cx="256"
     inkscape:cy="650.81459"
     inkscape:window-x="0"
     inkscape:window-y="22"
     inkscape:window-maximized="0"
     inkscape:current-layer="svg2" />
  <path
     sodipodi:type="star"
     style="fill:#000000;fill-opacity:1;stroke:#adc2b1;stroke-width:0;stroke-linecap:butt;stroke-linejoin:miter;stroke-miterlimit:4;stroke-opacity:1;stroke-dasharray:none"
     id="path3007"
     sodipodi:sides="6"
     sodipodi:cx="312.40677"
     sodipodi:cy="19.525423"
     sodipodi:r1="364.47458"
     sodipodi:r2="315.64423"
     sodipodi:arg1="1.5707963"
     sodipodi:arg2="2.0943951"
     inkscape:flatsided="true"
     inkscape:rounded="0"
     inkscape:randomized="0"
     d="M 312.40678,384 -3.2374706,201.76272 l -9.8e-6,-364.47458 315.6442404,-182.2373 315.64425,182.23729 10e-6,364.47457 z"
     transform="matrix(0.81103965,0,0,0.70238095,2.625725,242.28571)" />
  <g
     transform="matrix(15.034733,0,0,15.152301,-2341.9205,-19801.306)"
     id="g6">
    <path
       d="m 592.2903,496.8414 c 0,2.2943 -1.3653,4.1543 -3.0494,4.1543 -1.6841,0 -3.0494,-1.8599 -3.0494,-4.1543 0,-2.2944 1.3653,-4.1543 3.0494,-4.1543 1.6841,0 3.0494,1.8599 3.0494,4.1543 z"
       transform="matrix(-0.86381,-0.00188,0.00188,0.86381,680.64118,891.32391)"
       id="path8"
       inkscape:connector-curvature="0"
       style="fill:#ffffff" />
    <path
       d="m 162.3886,1312.2917 3.6834,5.5649 -1.4574,2.6798 -2.6122,-1.5976 0.3863,-6.6471 z"
       id="path10"
       inkscape:connector-curvature="0"
       style="fill:#ffffff" />
    <path
       d="m 164.174,1319.0461 5.1506,19.0772"
       id="path12"
       inkscape:connector-curvature="0"
       style="fill:none;stroke:#ffffff" />
    <path
       d="m 145.9149,1328.0809 c 0,2.9519 -2.393,5.3449 -5.3449,5.3449 -2.9519,0 -5.3449,-2.393 -5.3449,-5.3449 0,-2.9519 2.393,-5.3448 5.3449,-5.3448 2.9519,0 5.3449,2.3929 5.3449,5.3448 z"
       transform="matrix(1.25759,0,0,1.25759,0.13662,-339.98081)"
       id="path14"
       inkscape:connector-curvature="0"
       style="stroke:#ffffff;stroke-width:0.79519999" />
    <path
       d="m 145.9149,1328.0809 c 0,2.9519 -2.393,5.3449 -5.3449,5.3449 -2.9519,0 -5.3449,-2.393 -5.3449,-5.3449 0,-2.9519 2.393,-5.3448 5.3449,-5.3448 2.9519,0 5.3449,2.3929 5.3449,5.3448 z"
       transform="matrix(0.95908,0,0,0.95908,42.02459,56.46723)"
       id="path16"
       inkscape:connector-curvature="0"
       style="fill:#ffffff" />
    <path
       d="m 172.5647,1317.4179 1.6107,-4.87 -1.6107,-0.1671 -1.6107,0.1671 1.6107,4.87 z"
       id="path18"
       inkscape:connector-curvature="0"
       style="fill:#ffffff" />
    <path
       d="m 172.5247,1323.2325 v -4.3141"
       id="path20"
       inkscape:connector-curvature="0"
       style="fill:none;stroke:#000000" />
    <path
       d="m 169.8331,1318.5867 2.6151,0.6748 3.1116,-0.6749"
       id="path22"
       inkscape:connector-curvature="0"
       style="fill:none;stroke:#000000" />
    <path
       d="m 163.9142,1318.0872 2.2076,3.9598 -2.1288,0.5648 -0.0788,-4.5246 z"
       id="path24"
       inkscape:connector-curvature="0"
       style="fill:#ffffff" />
  </g>
</svg>
