<?xml version="1.0" encoding="UTF-8" standalone="no"?>
<svg
   xmlns:dc="http://purl.org/dc/elements/1.1/"
   xmlns:cc="http://creativecommons.org/ns#"
   xmlns:rdf="http://www.w3.org/1999/02/22-rdf-syntax-ns#"
   xmlns:svg="http://www.w3.org/2000/svg"
   xmlns="http://www.w3.org/2000/svg"
   xmlns:sodipodi="http://sodipodi.sourceforge.net/DTD/sodipodi-0.dtd"
   xmlns:inkscape="http://www.inkscape.org/namespaces/inkscape"
   viewBox="0 0 512 512"
   id="svg2"
   version="1.1"
   inkscape:version="0.48.2 r9819"
   width="100%"
   height="100%"
   sodipodi:docname="radial-balance.svg">
  <metadata
     id="metadata24">
    <rdf:RDF>
      <cc:Work
         rdf:about="">
        <dc:format>image/svg+xml</dc:format>
        <dc:type
           rdf:resource="http://purl.org/dc/dcmitype/StillImage" />
      </cc:Work>
    </rdf:RDF>
  </metadata>
  <defs
     id="defs22" />
  <sodipodi:namedview
     pagecolor="#ffffff"
     bordercolor="#666666"
     borderopacity="1"
     objecttolerance="10"
     gridtolerance="10"
     guidetolerance="10"
     inkscape:pageopacity="0"
     inkscape:pageshadow="2"
     inkscape:window-width="2560"
     inkscape:window-height="1359"
     id="namedview20"
     showgrid="false"
     inkscape:zoom="0.921875"
     inkscape:cx="256"
     inkscape:cy="256"
     inkscape:window-x="0"
     inkscape:window-y="22"
     inkscape:window-maximized="0"
     inkscape:current-layer="svg2" />
  <path
     sodipodi:type="star"
     style="fill:#000000;fill-opacity:1;stroke:none"
     id="path3001"
     sodipodi:sides="6"
     sodipodi:cx="477.28815"
     sodipodi:cy="98.711861"
     sodipodi:r1="254.16406"
     sodipodi:r2="220.11253"
     sodipodi:arg1="1.5707963"
     sodipodi:arg2="2.0943951"
     inkscape:flatsided="true"
     inkscape:rounded="0"
     inkscape:randomized="0"
     d="M 477.28815,352.87592 257.17562,225.7939 l -10e-6,-254.164065 220.11253,-127.082035 220.11254,127.082024 1e-5,254.164066 z"
     transform="matrix(1.1630414,0,0,1.0072234,-299.10589,156.5751)" />
  <g
     transform="matrix(16.823816,0,0,16.823816,-3025.3589,-1409.3231)"
     id="g6">
    <path
       d="m 186.5807,94.3306 -4.2757,1.1212 3.1341,3.1395 0.3696,-1.3794 18.1771,4.8705 -0.3696,1.3794 4.2839,-1.1519 -3.1423,-3.1089 -0.4107,1.5327 -18.1771,-4.8705 0.4107,-1.5326 z"
       id="path8"
       inkscape:connector-curvature="0"
       style="fill:#ffffff" />
    <path
       d="m 199.6682,90.3744 -1.1212,-4.2757 -3.1395,3.1341 1.3794,0.3696 -4.8705,18.1772 -1.3794,-0.3696 1.1519,4.2839 3.1089,-3.1423 -1.5326,-0.4107 4.8705,-18.1771 1.5327,0.4107 z"
       id="path10"
       inkscape:connector-curvature="0"
       style="fill:#ffffff" />
    <path
       d="m 192.2962,89.6529 -3.8162,-2.2306 -0.004,4.4361 1.2367,-0.714 9.4092,16.2972 -1.2367,0.714 3.8437,2.2147 -0.0236,-4.4202 -1.3741,0.7933 -9.4092,-16.2972 1.3741,-0.7934 z"
       id="path12"
       inkscape:connector-curvature="0"
       style="fill:#ffffff" />
    <path
       d="m 204.346,96.0899 2.2306,-3.8162 -4.4361,-0.0039 0.714,1.2367 -16.2972,9.4092 -0.714,-1.2367 -2.2147,3.8437 4.4202,-0.0236 -0.7933,-1.3741 16.2972,-9.4092 0.7934,1.3741 z"
       id="path14"
       inkscape:connector-curvature="0"
       style="fill:#ffffff" />
    <path
       d="m 227.1581,104.7286 c 0,2.6238 -2.127,4.7509 -4.7509,4.7509 -2.6239,0 -4.7509,-2.127 -4.7509,-4.7509 0,-2.6239 2.127,-4.7509 4.7509,-4.7509 2.6239,0 4.7509,2.127 4.7509,4.7509 z"
       transform="matrix(1.16796,0.31295,-0.31295,1.16796,-31.88529,-93.02599)"
       id="path16"
       inkscape:connector-curvature="0"
       style="fill:#ffffff;stroke:#ffffff;stroke-width:0.82700002" />
    <path
       d="m 194.0822,90.8571 -0.8383,4.6323 -4.5292,-1.4887 2.691,3.901 -4.244,2.0371 4.6408,0.9008 -1.5596,4.4752 3.9636,-2.6994 2.0371,4.2439 0.8383,-4.6323 4.4751,1.5596 -2.6284,-3.9095 4.2355,-2.0997 -4.6323,-0.8383 1.4971,-4.4667 -3.9095,2.6285 -2.0371,-4.244 z"
       id="path18"
       inkscape:connector-curvature="0" />
  </g>
</svg>
