<?xml version="1.0" encoding="UTF-8" standalone="no"?>
<svg
   xmlns:dc="http://purl.org/dc/elements/1.1/"
   xmlns:cc="http://creativecommons.org/ns#"
   xmlns:rdf="http://www.w3.org/1999/02/22-rdf-syntax-ns#"
   xmlns:svg="http://www.w3.org/2000/svg"
   xmlns="http://www.w3.org/2000/svg"
   xmlns:sodipodi="http://sodipodi.sourceforge.net/DTD/sodipodi-0.dtd"
   xmlns:inkscape="http://www.inkscape.org/namespaces/inkscape"
   viewBox="0 0 512 512"
   id="svg2"
   version="1.1"
   inkscape:version="0.48.2 r9819"
   width="100%"
   height="100%"
   sodipodi:docname="reticule.svg">
  <metadata
     id="metadata32">
    <rdf:RDF>
      <cc:Work
         rdf:about="">
        <dc:format>image/svg+xml</dc:format>
        <dc:type
           rdf:resource="http://purl.org/dc/dcmitype/StillImage" />
      </cc:Work>
    </rdf:RDF>
  </metadata>
  <defs
     id="defs30" />
  <sodipodi:namedview
     pagecolor="#ffffff"
     bordercolor="#666666"
     borderopacity="1"
     objecttolerance="10"
     gridtolerance="10"
     guidetolerance="10"
     inkscape:pageopacity="0"
     inkscape:pageshadow="2"
     inkscape:window-width="2560"
     inkscape:window-height="1359"
     id="namedview28"
     showgrid="false"
     inkscape:zoom="1.84375"
     inkscape:cx="256"
     inkscape:cy="234.30508"
     inkscape:window-x="0"
     inkscape:window-y="22"
     inkscape:window-maximized="0"
     inkscape:current-layer="svg2" />
  <path
     sodipodi:type="star"
     style="fill:#000000;fill-opacity:1;stroke:none"
     id="path3009"
     sodipodi:sides="6"
     sodipodi:cx="154.03391"
     sodipodi:cy="58.576271"
     sodipodi:r1="309.99445"
     sodipodi:r2="268.46307"
     sodipodi:arg1="0.52359878"
     sodipodi:arg2="1.0471976"
     inkscape:flatsided="true"
     inkscape:rounded="0"
     inkscape:randomized="0"
     d="M 422.49697,213.5735 154.0339,368.57072 -114.42916,213.57349 l 0,-309.994443 268.46307,-154.997217 268.46306,154.997219 z"
     transform="matrix(0.95357624,0,0,0.82582125,109.11693,207.62647)" />
  <g
     transform="matrix(15.851827,0,0,15.851827,-4774.4844,-157.1353)"
     id="g6">
    <path
       d="m 317.3532,13.4035 c -6.9735,0 -12.6441,5.6379 -12.6441,12.6115 0,6.9736 5.6706,12.6443 12.6441,12.6443 6.9735,0 12.6113,-5.6707 12.6113,-12.6443 0,-6.9736 -5.6378,-12.6115 -12.6113,-12.6115 z m 0,3.0872 c 5.2557,-1e-6 9.5241,4.2685 9.5241,9.5243 0,5.2558 -4.2684,9.5243 -9.5241,9.5243 -5.2557,0 -9.5242,-4.2685 -9.5242,-9.5243 0,-5.2558 4.2684,-9.5243 9.5242,-9.5243 z"
       id="path8"
       inkscape:connector-curvature="0"
       style="fill:#ffffff" />
    <path
       d="m 303.7929,26.0314 h 27.0876"
       id="path10"
       inkscape:connector-curvature="0"
       style="fill:none;stroke:#000000" />
    <path
       d="M 317.3368,12.6186 V 39.4443"
       id="path12"
       inkscape:connector-curvature="0"
       style="fill:none;stroke:#000000" />
    <path
       d="m 317.3543,19.1516 c -3.7991,0 -6.8972,3.0632 -6.8972,6.8624 0,3.7992 3.0982,6.8974 6.8972,6.8974 3.799,0 6.8622,-3.0982 6.8623,-6.8974 10e-5,-3.7992 -3.0632,-6.8624 -6.8623,-6.8624 z m 0,1.6806 c 2.8633,1e-6 5.1817,2.3185 5.1817,5.1818 0,2.8633 -2.3184,5.2168 -5.1817,5.2168 -2.8633,0 -5.1817,-2.3535 -5.1817,-5.2168 0,-2.8633 2.3184,-5.1818 5.1817,-5.1818 z"
       id="path14"
       inkscape:connector-curvature="0"
       style="fill:#ffffff" />
    <path
       d="m 311.2381,19.9327 12.1972,12.1975"
       id="path16"
       inkscape:connector-curvature="0"
       style="fill:none;stroke:#000000" />
    <path
       d="M 323.4354,19.9327 311.2382,32.1302"
       id="path18"
       inkscape:connector-curvature="0"
       style="fill:none;stroke:#000000" />
    <path
       d="m 318.4662,20.6116 -2.1781,7e-6 1.0891,4.0884 1.0891,-4.0885 z"
       id="path20"
       inkscape:connector-curvature="0"
       style="fill:#ffffff" />
    <path
       d="m 318.4662,31.4088 -2.1781,-7e-6 1.0891,-4.0884 1.0891,4.0885 z"
       id="path22"
       inkscape:connector-curvature="0"
       style="fill:#ffffff" />
    <path
       d="m 322.7757,27.0992 -2e-5,-2.1781 -4.0884,1.0891 4.0885,1.0891 z"
       id="path24"
       inkscape:connector-curvature="0"
       style="fill:#ffffff" />
    <path
       d="m 311.9785,27.0992 1e-5,-2.1781 4.0884,1.0891 -4.0884,1.0891 z"
       id="path26"
       inkscape:connector-curvature="0"
       style="fill:#ffffff" />
  </g>
</svg>
