<?xml version="1.0" encoding="UTF-8" standalone="no"?>
<svg
   xmlns:dc="http://purl.org/dc/elements/1.1/"
   xmlns:cc="http://creativecommons.org/ns#"
   xmlns:rdf="http://www.w3.org/1999/02/22-rdf-syntax-ns#"
   xmlns:svg="http://www.w3.org/2000/svg"
   xmlns="http://www.w3.org/2000/svg"
   xmlns:sodipodi="http://sodipodi.sourceforge.net/DTD/sodipodi-0.dtd"
   xmlns:inkscape="http://www.inkscape.org/namespaces/inkscape"
   viewBox="0 0 512 512"
   id="svg2"
   version="1.1"
   inkscape:version="0.48.4 r9939"
   width="100%"
   height="100%"
   sodipodi:docname="walking-boot.svg">
  <metadata
     id="metadata18">
    <rdf:RDF>
      <cc:Work
         rdf:about="">
        <dc:format>image/svg+xml</dc:format>
        <dc:type
           rdf:resource="http://purl.org/dc/dcmitype/StillImage" />
      </cc:Work>
    </rdf:RDF>
  </metadata>
  <defs
     id="defs16" />
  <sodipodi:namedview
     pagecolor="#ffffff"
     bordercolor="#666666"
     borderopacity="1"
     objecttolerance="10"
     gridtolerance="10"
     guidetolerance="10"
     inkscape:pageopacity="0"
     inkscape:pageshadow="2"
     inkscape:window-width="1920"
     inkscape:window-height="1051"
     id="namedview14"
     showgrid="false"
     inkscape:zoom="0.4609375"
     inkscape:cx="-19.525424"
     inkscape:cy="256"
     inkscape:window-x="0"
     inkscape:window-y="0"
     inkscape:window-maximized="1"
     inkscape:current-layer="svg2" />
  <path
     sodipodi:type="star"
     style="color:#000000;fill:#000000;fill-opacity:1;fill-rule:nonzero;stroke:none;stroke-width:1.75658131;marker:none;visibility:visible;display:inline;overflow:visible;enable-background:accumulate"
     id="path3031"
     sodipodi:sides="6"
     sodipodi:cx="-200.67796"
     sodipodi:cy="136.67796"
     sodipodi:r1="258.60211"
     sodipodi:r2="223.95599"
     sodipodi:arg1="0.52359878"
     sodipodi:arg2="1.0471976"
     inkscape:flatsided="true"
     inkscape:rounded="0"
     inkscape:randomized="0"
     d="m 23.278034,265.97902 -223.955994,129.30106 -223.956,-129.30106 0,-258.6021136 223.956,-129.3010564 L 23.278036,7.3769083 z"
     transform="matrix(1.1430817,0,0,0.98993778,485.39131,120.69732)" />
  <g
     transform="matrix(16.218532,0,0,16.218532,2268.1791,-5250.644)"
     id="g6">
    <path
       d="m -117.442,331.2601 c -5.0621,1.7037 -10.911,7.2647 -5.9785,12.1801 3.7653,-1.314 9.4371,1.1996 9.0264,6.8643 h -12.2846 c -0.8465,-2.1562 -2.7298,-3.8615 -5.4593,-5.4049 -0.238,0.1485 -0.4578,0.4429 -0.549,0.7625 -2.0973,-0.3165 -4.4909,-1.7965 -4.875,-3.2819 0.3196,-2.0647 1.841,-4.609 3.9361,-6.711 3.0717,-3.0819 5.1134,-6.5909 6.7275,-9.5505 4.3937,-1.5694 7.5854,1.6654 9.4563,5.1414 z"
       id="path8"
       inkscape:connector-curvature="0"
       style="fill:#ffffff" />
    <path
       d="m -122.8176,341.9497 c -0.9302,-4.5236 1.3036,-7.9147 7.6591,-8.2961 -3.2891,-12.0386 -15.5214,-1.6027 -12.6277,7.1623 0.7335,2.2217 5.3587,3.0308 4.9686,1.1338 z"
       id="path10"
       inkscape:connector-curvature="0"
       style="fill:#ffffff;fill-rule:evenodd;stroke:#000000" />
    <path
       d="m -136.7431,338.0328 c -1.6125,4.3711 7.4058,4.0629 11.3829,10.3057 l 11.8218,0.002"
       id="path12"
       inkscape:connector-curvature="0"
       style="fill:none;stroke:#000000" />
  </g>
</svg>
