<?xml version="1.0" encoding="UTF-8" standalone="no"?>
<!-- Created with Inkscape (http://www.inkscape.org/) -->

<svg
   xmlns:dc="http://purl.org/dc/elements/1.1/"
   xmlns:cc="http://creativecommons.org/ns#"
   xmlns:rdf="http://www.w3.org/1999/02/22-rdf-syntax-ns#"
   xmlns:svg="http://www.w3.org/2000/svg"
   xmlns="http://www.w3.org/2000/svg"
   xmlns:sodipodi="http://sodipodi.sourceforge.net/DTD/sodipodi-0.dtd"
   xmlns:inkscape="http://www.inkscape.org/namespaces/inkscape"
   width="65"
   height="40"
   id="svg3000"
   version="1.1"
   inkscape:version="0.48.4 r9939"
   sodipodi:docname="dirt-hex2-depth.svg">
  <defs
     id="defs3002" />
  <sodipodi:namedview
     id="base"
     pagecolor="#ffffff"
     bordercolor="#666666"
     borderopacity="1.0"
     inkscape:pageopacity="0.0"
     inkscape:pageshadow="2"
     inkscape:zoom="5.6"
     inkscape:cx="78.214288"
     inkscape:cy="-14.14642"
     inkscape:document-units="px"
     inkscape:current-layer="layer1"
     showgrid="false"
     fit-margin-top="0"
     fit-margin-left="0"
     fit-margin-right="0"
     fit-margin-bottom="0"
     inkscape:window-width="1920"
     inkscape:window-height="1051"
     inkscape:window-x="0"
     inkscape:window-y="0"
     inkscape:window-maximized="1" />
  <metadata
     id="metadata3005">
    <rdf:RDF>
      <cc:Work
         rdf:about="">
        <dc:format>image/svg+xml</dc:format>
        <dc:type
           rdf:resource="http://purl.org/dc/dcmitype/StillImage" />
        <dc:title />
      </cc:Work>
    </rdf:RDF>
  </metadata>
  <g
     inkscape:label="Layer 1"
     inkscape:groupmode="layer"
     id="layer1"
     transform="translate(-175.35714,-456.78719)">
    <path
       style="fill:#c58f5c;stroke:none"
       inkscape:connector-curvature="0"
       d="m 240.35714,469.70644 q -7.4,-2.7826 -15.8,6.6087 l -0.4,0.39752 q -5,6.31055 -10.6,7.45341 l -0.4,0 -5.25,-0.34782 0,-0.0497 q -3.8,-4.7205 -7.85,-6.50932 -2.45,-1.09317 -5,-1.04348 -1.7,-0.0497 -3.45,0.44721 -5,1.98757 -10.6,-1.78882 l -0.4,-0.29814 q -2.6,-1.8882 -5.25,-4.96894 l 0,-10.8323 32.15,15.95031 32.85,-15.95031 0,10.93167"
       id="path310-7" />
    <path
       style="fill:#bbcbcc;stroke:none"
       inkscape:connector-curvature="0"
       d="m 240.35714,469.70644 0,10.93168 -32.45,16.14907 -32.55,-16.14907 0,-11.03105 q 2.65,3.08074 5.25,4.96894 l 0.4,0.29814 q 5.6,3.77639 10.6,1.78882 1.75,-0.4969 3.45,-0.44721 2.55,-0.0497 5,1.04348 4.05,1.78882 7.85,6.50932 l 0,0.0497 5.25,0.34782 0.4,0 q 5.6,-1.14286 10.6,-7.45341 l 0.4,-0.39752 q 8.4,-9.3913 15.8,-6.6087"
       id="path312-2" />
    <path
       style="fill:#d6b08d;stroke:none"
       inkscape:connector-curvature="0"
       d="m 240.35714,458.77477 -32.85,15.95031 -32.15,-15.95031 0,-1.98758 32.55,16.14907 32.45,-16.14907 0,1.98758"
       id="path314-0" />
    <path
       style="fill:#000000;fill-opacity:0.10196078;stroke:none"
       inkscape:connector-curvature="0"
       d="m 175.35714,458.77477 32.55,16.14907 0,21.86335 -32.55,-16.14907 0,-21.86335"
       id="path318-8" />
  </g>
</svg>
